<mxfile host="app.diagrams.net" modified="2024-05-02T18:41:55.114Z" agent="Mozilla/5.0 (Windows NT 10.0; Win64; x64) AppleWebKit/537.36 (KHTML, like Gecko) Chrome/124.0.0.0 Safari/537.36" etag="ZnwexWJ_RFBFhFv2-1fj" version="24.3.1" type="device">
  <diagram name="Page-1" id="9xG8idKDlkrX8xxEFtQo">
    <mxGraphModel dx="2327" dy="1915" grid="1" gridSize="10" guides="1" tooltips="1" connect="1" arrows="1" fold="1" page="1" pageScale="1" pageWidth="827" pageHeight="1169" math="0" shadow="0">
      <root>
        <mxCell id="0" />
        <mxCell id="1" parent="0" />
        <mxCell id="5sZzLFKiaspfi8mrWbHo-1" value="" style="rounded=0;whiteSpace=wrap;html=1;" vertex="1" parent="1">
          <mxGeometry x="140" y="142.5" width="540" height="300" as="geometry" />
        </mxCell>
        <mxCell id="5sZzLFKiaspfi8mrWbHo-3" value="" style="rounded=0;whiteSpace=wrap;html=1;" vertex="1" parent="1">
          <mxGeometry x="140" y="142.5" width="90" height="300" as="geometry" />
        </mxCell>
        <mxCell id="5sZzLFKiaspfi8mrWbHo-4" value="" style="endArrow=none;html=1;rounded=0;" edge="1" parent="1">
          <mxGeometry width="50" height="50" relative="1" as="geometry">
            <mxPoint x="230" y="182.5" as="sourcePoint" />
            <mxPoint x="140" y="182.5" as="targetPoint" />
          </mxGeometry>
        </mxCell>
        <mxCell id="5sZzLFKiaspfi8mrWbHo-9" value="" style="endArrow=none;html=1;rounded=0;" edge="1" parent="1">
          <mxGeometry width="50" height="50" relative="1" as="geometry">
            <mxPoint x="230" y="222.5" as="sourcePoint" />
            <mxPoint x="140" y="222.5" as="targetPoint" />
          </mxGeometry>
        </mxCell>
        <mxCell id="5sZzLFKiaspfi8mrWbHo-10" value="" style="endArrow=none;html=1;rounded=0;" edge="1" parent="1">
          <mxGeometry width="50" height="50" relative="1" as="geometry">
            <mxPoint x="230" y="342.5" as="sourcePoint" />
            <mxPoint x="140" y="342.5" as="targetPoint" />
          </mxGeometry>
        </mxCell>
        <mxCell id="5sZzLFKiaspfi8mrWbHo-11" value="" style="endArrow=none;html=1;rounded=0;" edge="1" parent="1">
          <mxGeometry width="50" height="50" relative="1" as="geometry">
            <mxPoint x="230" y="302.5" as="sourcePoint" />
            <mxPoint x="140" y="302.5" as="targetPoint" />
          </mxGeometry>
        </mxCell>
        <mxCell id="5sZzLFKiaspfi8mrWbHo-12" value="" style="endArrow=none;html=1;rounded=0;" edge="1" parent="1">
          <mxGeometry width="50" height="50" relative="1" as="geometry">
            <mxPoint x="230" y="262.5" as="sourcePoint" />
            <mxPoint x="140" y="262.5" as="targetPoint" />
          </mxGeometry>
        </mxCell>
        <mxCell id="5sZzLFKiaspfi8mrWbHo-13" value="Home" style="text;html=1;align=center;verticalAlign=middle;resizable=0;points=[];autosize=1;strokeColor=#d79b00;fillColor=#ffe6cc;" vertex="1" parent="1">
          <mxGeometry x="155" y="152.5" width="60" height="30" as="geometry" />
        </mxCell>
        <mxCell id="5sZzLFKiaspfi8mrWbHo-1073" style="edgeStyle=orthogonalEdgeStyle;rounded=0;orthogonalLoop=1;jettySize=auto;html=1;" edge="1" parent="1" source="5sZzLFKiaspfi8mrWbHo-14" target="5sZzLFKiaspfi8mrWbHo-462">
          <mxGeometry relative="1" as="geometry">
            <Array as="points">
              <mxPoint x="690" y="200" />
              <mxPoint x="690" y="293" />
            </Array>
          </mxGeometry>
        </mxCell>
        <mxCell id="5sZzLFKiaspfi8mrWbHo-14" value="Orders" style="text;html=1;align=center;verticalAlign=middle;resizable=0;points=[];autosize=1;strokeColor=none;fillColor=none;" vertex="1" parent="1">
          <mxGeometry x="155" y="192.5" width="60" height="30" as="geometry" />
        </mxCell>
        <mxCell id="5sZzLFKiaspfi8mrWbHo-1076" style="edgeStyle=orthogonalEdgeStyle;rounded=0;orthogonalLoop=1;jettySize=auto;html=1;" edge="1" parent="1" source="5sZzLFKiaspfi8mrWbHo-15" target="5sZzLFKiaspfi8mrWbHo-679">
          <mxGeometry relative="1" as="geometry">
            <Array as="points">
              <mxPoint x="260" y="248" />
            </Array>
          </mxGeometry>
        </mxCell>
        <mxCell id="5sZzLFKiaspfi8mrWbHo-15" value="Products" style="text;html=1;align=center;verticalAlign=middle;resizable=0;points=[];autosize=1;strokeColor=none;fillColor=none;" vertex="1" parent="1">
          <mxGeometry x="150" y="232.5" width="70" height="30" as="geometry" />
        </mxCell>
        <mxCell id="5sZzLFKiaspfi8mrWbHo-16" value="Services" style="text;html=1;align=center;verticalAlign=middle;resizable=0;points=[];autosize=1;strokeColor=none;fillColor=none;" vertex="1" parent="1">
          <mxGeometry x="150" y="272.5" width="70" height="30" as="geometry" />
        </mxCell>
        <mxCell id="5sZzLFKiaspfi8mrWbHo-17" value="Payments" style="text;html=1;align=center;verticalAlign=middle;resizable=0;points=[];autosize=1;strokeColor=none;fillColor=none;" vertex="1" parent="1">
          <mxGeometry x="145" y="312.5" width="80" height="30" as="geometry" />
        </mxCell>
        <mxCell id="5sZzLFKiaspfi8mrWbHo-18" value="" style="endArrow=none;html=1;rounded=0;" edge="1" parent="1">
          <mxGeometry width="50" height="50" relative="1" as="geometry">
            <mxPoint x="230" y="382.5" as="sourcePoint" />
            <mxPoint x="140" y="382.5" as="targetPoint" />
          </mxGeometry>
        </mxCell>
        <mxCell id="5sZzLFKiaspfi8mrWbHo-19" value="" style="endArrow=none;html=1;rounded=0;" edge="1" parent="1">
          <mxGeometry width="50" height="50" relative="1" as="geometry">
            <mxPoint x="230" y="342.5" as="sourcePoint" />
            <mxPoint x="140" y="342.5" as="targetPoint" />
          </mxGeometry>
        </mxCell>
        <mxCell id="5sZzLFKiaspfi8mrWbHo-1074" style="edgeStyle=orthogonalEdgeStyle;rounded=0;orthogonalLoop=1;jettySize=auto;html=1;entryX=1;entryY=0.5;entryDx=0;entryDy=0;" edge="1" parent="1" source="5sZzLFKiaspfi8mrWbHo-20" target="5sZzLFKiaspfi8mrWbHo-970">
          <mxGeometry relative="1" as="geometry" />
        </mxCell>
        <mxCell id="5sZzLFKiaspfi8mrWbHo-20" value="Profile" style="text;html=1;align=center;verticalAlign=middle;resizable=0;points=[];autosize=1;strokeColor=none;fillColor=none;" vertex="1" parent="1">
          <mxGeometry x="155" y="352.5" width="60" height="30" as="geometry" />
        </mxCell>
        <mxCell id="5sZzLFKiaspfi8mrWbHo-21" value="" style="endArrow=none;html=1;rounded=0;" edge="1" parent="1">
          <mxGeometry width="50" height="50" relative="1" as="geometry">
            <mxPoint x="230" y="422.5" as="sourcePoint" />
            <mxPoint x="140" y="422.5" as="targetPoint" />
          </mxGeometry>
        </mxCell>
        <mxCell id="5sZzLFKiaspfi8mrWbHo-22" value="" style="endArrow=none;html=1;rounded=0;" edge="1" parent="1">
          <mxGeometry width="50" height="50" relative="1" as="geometry">
            <mxPoint x="230" y="382.5" as="sourcePoint" />
            <mxPoint x="140" y="382.5" as="targetPoint" />
          </mxGeometry>
        </mxCell>
        <mxCell id="5sZzLFKiaspfi8mrWbHo-1085" style="edgeStyle=orthogonalEdgeStyle;rounded=0;orthogonalLoop=1;jettySize=auto;html=1;entryX=1;entryY=0.5;entryDx=0;entryDy=0;" edge="1" parent="1" source="5sZzLFKiaspfi8mrWbHo-23" target="5sZzLFKiaspfi8mrWbHo-925">
          <mxGeometry relative="1" as="geometry" />
        </mxCell>
        <mxCell id="5sZzLFKiaspfi8mrWbHo-23" value="Reviews" style="text;html=1;align=center;verticalAlign=middle;resizable=0;points=[];autosize=1;strokeColor=none;fillColor=none;" vertex="1" parent="1">
          <mxGeometry x="150" y="392.5" width="70" height="30" as="geometry" />
        </mxCell>
        <mxCell id="5sZzLFKiaspfi8mrWbHo-29" value="" style="group" vertex="1" connectable="0" parent="1">
          <mxGeometry x="280" y="212.5" width="120" height="60" as="geometry" />
        </mxCell>
        <mxCell id="5sZzLFKiaspfi8mrWbHo-24" value="Reviews" style="rounded=0;whiteSpace=wrap;html=1;" vertex="1" parent="5sZzLFKiaspfi8mrWbHo-29">
          <mxGeometry width="120" height="60" as="geometry" />
        </mxCell>
        <mxCell id="5sZzLFKiaspfi8mrWbHo-25" value="&lt;font color=&quot;#6666ff&quot; style=&quot;font-size: 8px;&quot;&gt;See all&lt;/font&gt;" style="text;html=1;align=center;verticalAlign=middle;resizable=0;points=[];autosize=1;strokeColor=none;fillColor=none;" vertex="1" parent="5sZzLFKiaspfi8mrWbHo-29">
          <mxGeometry x="70" y="30" width="50" height="30" as="geometry" />
        </mxCell>
        <mxCell id="5sZzLFKiaspfi8mrWbHo-30" value="" style="group" vertex="1" connectable="0" parent="1">
          <mxGeometry x="484" y="212.5" width="120" height="60" as="geometry" />
        </mxCell>
        <mxCell id="5sZzLFKiaspfi8mrWbHo-1084" style="edgeStyle=orthogonalEdgeStyle;rounded=0;orthogonalLoop=1;jettySize=auto;html=1;exitX=0.5;exitY=0;exitDx=0;exitDy=0;" edge="1" parent="5sZzLFKiaspfi8mrWbHo-30" source="5sZzLFKiaspfi8mrWbHo-31">
          <mxGeometry relative="1" as="geometry">
            <mxPoint x="-414" y="-352.5" as="targetPoint" />
          </mxGeometry>
        </mxCell>
        <mxCell id="5sZzLFKiaspfi8mrWbHo-31" value="Sales Total" style="rounded=0;whiteSpace=wrap;html=1;" vertex="1" parent="5sZzLFKiaspfi8mrWbHo-30">
          <mxGeometry width="120" height="60" as="geometry" />
        </mxCell>
        <mxCell id="5sZzLFKiaspfi8mrWbHo-32" value="&lt;font color=&quot;#6666ff&quot; style=&quot;font-size: 8px;&quot;&gt;See all&lt;/font&gt;" style="text;html=1;align=center;verticalAlign=middle;resizable=0;points=[];autosize=1;strokeColor=none;fillColor=none;" vertex="1" parent="5sZzLFKiaspfi8mrWbHo-30">
          <mxGeometry x="70" y="30" width="50" height="30" as="geometry" />
        </mxCell>
        <mxCell id="5sZzLFKiaspfi8mrWbHo-33" value="" style="group" vertex="1" connectable="0" parent="1">
          <mxGeometry x="280" y="342.5" width="120" height="60" as="geometry" />
        </mxCell>
        <mxCell id="5sZzLFKiaspfi8mrWbHo-34" value="Orders" style="rounded=0;whiteSpace=wrap;html=1;" vertex="1" parent="5sZzLFKiaspfi8mrWbHo-33">
          <mxGeometry width="120" height="60" as="geometry" />
        </mxCell>
        <mxCell id="5sZzLFKiaspfi8mrWbHo-35" value="&lt;font color=&quot;#6666ff&quot; style=&quot;font-size: 8px;&quot;&gt;See all&lt;/font&gt;" style="text;html=1;align=center;verticalAlign=middle;resizable=0;points=[];autosize=1;strokeColor=none;fillColor=none;" vertex="1" parent="5sZzLFKiaspfi8mrWbHo-33">
          <mxGeometry x="70" y="30" width="50" height="30" as="geometry" />
        </mxCell>
        <mxCell id="5sZzLFKiaspfi8mrWbHo-36" value="" style="group" vertex="1" connectable="0" parent="1">
          <mxGeometry x="484" y="342.5" width="120" height="60" as="geometry" />
        </mxCell>
        <mxCell id="5sZzLFKiaspfi8mrWbHo-37" value="Total Products and Services" style="rounded=0;whiteSpace=wrap;html=1;" vertex="1" parent="5sZzLFKiaspfi8mrWbHo-36">
          <mxGeometry width="120" height="60" as="geometry" />
        </mxCell>
        <mxCell id="5sZzLFKiaspfi8mrWbHo-1077" style="edgeStyle=orthogonalEdgeStyle;rounded=0;orthogonalLoop=1;jettySize=auto;html=1;" edge="1" parent="5sZzLFKiaspfi8mrWbHo-36" source="5sZzLFKiaspfi8mrWbHo-38">
          <mxGeometry relative="1" as="geometry">
            <mxPoint x="95" y="227.5" as="targetPoint" />
          </mxGeometry>
        </mxCell>
        <mxCell id="5sZzLFKiaspfi8mrWbHo-38" value="&lt;font color=&quot;#6666ff&quot; style=&quot;font-size: 8px;&quot;&gt;See all&lt;/font&gt;" style="text;html=1;align=center;verticalAlign=middle;resizable=0;points=[];autosize=1;strokeColor=none;fillColor=none;" vertex="1" parent="5sZzLFKiaspfi8mrWbHo-36">
          <mxGeometry x="70" y="30" width="50" height="30" as="geometry" />
        </mxCell>
        <mxCell id="5sZzLFKiaspfi8mrWbHo-39" value="&lt;h2&gt;&lt;font style=&quot;font-size: 18px;&quot;&gt;Overview&lt;/font&gt;&lt;/h2&gt;" style="text;html=1;align=center;verticalAlign=middle;resizable=0;points=[];autosize=1;strokeColor=none;fillColor=none;" vertex="1" parent="1">
          <mxGeometry x="240" y="137.5" width="100" height="60" as="geometry" />
        </mxCell>
        <mxCell id="5sZzLFKiaspfi8mrWbHo-493" value="Logo" style="ellipse;whiteSpace=wrap;html=1;" vertex="1" parent="1">
          <mxGeometry x="620" y="150" width="50" height="45" as="geometry" />
        </mxCell>
        <mxCell id="5sZzLFKiaspfi8mrWbHo-495" value="" style="group" vertex="1" connectable="0" parent="1">
          <mxGeometry x="980" y="137.5" width="540" height="305" as="geometry" />
        </mxCell>
        <mxCell id="5sZzLFKiaspfi8mrWbHo-462" value="" style="rounded=0;whiteSpace=wrap;html=1;" vertex="1" parent="5sZzLFKiaspfi8mrWbHo-495">
          <mxGeometry y="5" width="540" height="300" as="geometry" />
        </mxCell>
        <mxCell id="5sZzLFKiaspfi8mrWbHo-463" value="" style="rounded=0;whiteSpace=wrap;html=1;" vertex="1" parent="5sZzLFKiaspfi8mrWbHo-495">
          <mxGeometry y="5" width="90" height="300" as="geometry" />
        </mxCell>
        <mxCell id="5sZzLFKiaspfi8mrWbHo-464" value="" style="endArrow=none;html=1;rounded=0;" edge="1" parent="5sZzLFKiaspfi8mrWbHo-495">
          <mxGeometry width="50" height="50" relative="1" as="geometry">
            <mxPoint x="90" y="45" as="sourcePoint" />
            <mxPoint y="45" as="targetPoint" />
          </mxGeometry>
        </mxCell>
        <mxCell id="5sZzLFKiaspfi8mrWbHo-465" value="" style="endArrow=none;html=1;rounded=0;" edge="1" parent="5sZzLFKiaspfi8mrWbHo-495">
          <mxGeometry width="50" height="50" relative="1" as="geometry">
            <mxPoint x="90" y="85" as="sourcePoint" />
            <mxPoint y="85" as="targetPoint" />
          </mxGeometry>
        </mxCell>
        <mxCell id="5sZzLFKiaspfi8mrWbHo-466" value="" style="endArrow=none;html=1;rounded=0;" edge="1" parent="5sZzLFKiaspfi8mrWbHo-495">
          <mxGeometry width="50" height="50" relative="1" as="geometry">
            <mxPoint x="90" y="205" as="sourcePoint" />
            <mxPoint y="205" as="targetPoint" />
          </mxGeometry>
        </mxCell>
        <mxCell id="5sZzLFKiaspfi8mrWbHo-467" value="" style="endArrow=none;html=1;rounded=0;" edge="1" parent="5sZzLFKiaspfi8mrWbHo-495">
          <mxGeometry width="50" height="50" relative="1" as="geometry">
            <mxPoint x="90" y="165" as="sourcePoint" />
            <mxPoint y="165" as="targetPoint" />
          </mxGeometry>
        </mxCell>
        <mxCell id="5sZzLFKiaspfi8mrWbHo-468" value="" style="endArrow=none;html=1;rounded=0;" edge="1" parent="5sZzLFKiaspfi8mrWbHo-495">
          <mxGeometry width="50" height="50" relative="1" as="geometry">
            <mxPoint x="90" y="125" as="sourcePoint" />
            <mxPoint y="125" as="targetPoint" />
          </mxGeometry>
        </mxCell>
        <mxCell id="5sZzLFKiaspfi8mrWbHo-469" value="Home" style="text;html=1;align=center;verticalAlign=middle;resizable=0;points=[];autosize=1;strokeColor=none;fillColor=none;" vertex="1" parent="5sZzLFKiaspfi8mrWbHo-495">
          <mxGeometry x="15" y="15" width="60" height="30" as="geometry" />
        </mxCell>
        <mxCell id="5sZzLFKiaspfi8mrWbHo-470" value="Orders" style="text;html=1;align=center;verticalAlign=middle;resizable=0;points=[];autosize=1;strokeColor=#d79b00;fillColor=#ffe6cc;" vertex="1" parent="5sZzLFKiaspfi8mrWbHo-495">
          <mxGeometry x="15" y="55" width="60" height="30" as="geometry" />
        </mxCell>
        <mxCell id="5sZzLFKiaspfi8mrWbHo-471" value="Products" style="text;html=1;align=center;verticalAlign=middle;resizable=0;points=[];autosize=1;strokeColor=none;fillColor=none;" vertex="1" parent="5sZzLFKiaspfi8mrWbHo-495">
          <mxGeometry x="10" y="95" width="70" height="30" as="geometry" />
        </mxCell>
        <mxCell id="5sZzLFKiaspfi8mrWbHo-472" value="Services" style="text;html=1;align=center;verticalAlign=middle;resizable=0;points=[];autosize=1;strokeColor=none;fillColor=none;" vertex="1" parent="5sZzLFKiaspfi8mrWbHo-495">
          <mxGeometry x="10" y="135" width="70" height="30" as="geometry" />
        </mxCell>
        <mxCell id="5sZzLFKiaspfi8mrWbHo-473" value="Payments" style="text;html=1;align=center;verticalAlign=middle;resizable=0;points=[];autosize=1;strokeColor=none;fillColor=none;" vertex="1" parent="5sZzLFKiaspfi8mrWbHo-495">
          <mxGeometry x="5" y="175" width="80" height="30" as="geometry" />
        </mxCell>
        <mxCell id="5sZzLFKiaspfi8mrWbHo-474" value="" style="endArrow=none;html=1;rounded=0;" edge="1" parent="5sZzLFKiaspfi8mrWbHo-495">
          <mxGeometry width="50" height="50" relative="1" as="geometry">
            <mxPoint x="90" y="245" as="sourcePoint" />
            <mxPoint y="245" as="targetPoint" />
          </mxGeometry>
        </mxCell>
        <mxCell id="5sZzLFKiaspfi8mrWbHo-475" value="" style="endArrow=none;html=1;rounded=0;" edge="1" parent="5sZzLFKiaspfi8mrWbHo-495">
          <mxGeometry width="50" height="50" relative="1" as="geometry">
            <mxPoint x="90" y="205" as="sourcePoint" />
            <mxPoint y="205" as="targetPoint" />
          </mxGeometry>
        </mxCell>
        <mxCell id="5sZzLFKiaspfi8mrWbHo-476" value="Profile" style="text;html=1;align=center;verticalAlign=middle;resizable=0;points=[];autosize=1;strokeColor=none;fillColor=none;" vertex="1" parent="5sZzLFKiaspfi8mrWbHo-495">
          <mxGeometry x="15" y="215" width="60" height="30" as="geometry" />
        </mxCell>
        <mxCell id="5sZzLFKiaspfi8mrWbHo-477" value="" style="endArrow=none;html=1;rounded=0;" edge="1" parent="5sZzLFKiaspfi8mrWbHo-495">
          <mxGeometry width="50" height="50" relative="1" as="geometry">
            <mxPoint x="90" y="285" as="sourcePoint" />
            <mxPoint y="285" as="targetPoint" />
          </mxGeometry>
        </mxCell>
        <mxCell id="5sZzLFKiaspfi8mrWbHo-478" value="" style="endArrow=none;html=1;rounded=0;" edge="1" parent="5sZzLFKiaspfi8mrWbHo-495">
          <mxGeometry width="50" height="50" relative="1" as="geometry">
            <mxPoint x="90" y="245" as="sourcePoint" />
            <mxPoint y="245" as="targetPoint" />
          </mxGeometry>
        </mxCell>
        <mxCell id="5sZzLFKiaspfi8mrWbHo-479" value="Reviews" style="text;html=1;align=center;verticalAlign=middle;resizable=0;points=[];autosize=1;strokeColor=none;fillColor=none;" vertex="1" parent="5sZzLFKiaspfi8mrWbHo-495">
          <mxGeometry x="10" y="255" width="70" height="30" as="geometry" />
        </mxCell>
        <mxCell id="5sZzLFKiaspfi8mrWbHo-492" value="&lt;h2&gt;&lt;font style=&quot;font-size: 18px;&quot;&gt;Orders&lt;/font&gt;&lt;/h2&gt;" style="text;html=1;align=center;verticalAlign=middle;resizable=0;points=[];autosize=1;strokeColor=none;fillColor=none;" vertex="1" parent="5sZzLFKiaspfi8mrWbHo-495">
          <mxGeometry x="110" width="80" height="60" as="geometry" />
        </mxCell>
        <mxCell id="5sZzLFKiaspfi8mrWbHo-494" value="Logo" style="ellipse;whiteSpace=wrap;html=1;" vertex="1" parent="5sZzLFKiaspfi8mrWbHo-495">
          <mxGeometry x="480" y="15" width="50" height="45" as="geometry" />
        </mxCell>
        <mxCell id="5sZzLFKiaspfi8mrWbHo-496" value="&lt;font style=&quot;font-size: 9px;&quot;&gt;All&lt;/font&gt;" style="rounded=1;whiteSpace=wrap;html=1;fillColor=#ffe6cc;strokeColor=#d79b00;" vertex="1" parent="5sZzLFKiaspfi8mrWbHo-495">
          <mxGeometry x="125" y="55" width="50" height="20" as="geometry" />
        </mxCell>
        <mxCell id="5sZzLFKiaspfi8mrWbHo-497" value="&lt;font style=&quot;font-size: 9px;&quot;&gt;Pending&lt;/font&gt;" style="rounded=1;whiteSpace=wrap;html=1;" vertex="1" parent="5sZzLFKiaspfi8mrWbHo-495">
          <mxGeometry x="190" y="55" width="50" height="20" as="geometry" />
        </mxCell>
        <mxCell id="5sZzLFKiaspfi8mrWbHo-501" value="&lt;font style=&quot;font-size: 9px;&quot;&gt;Confirmed&lt;/font&gt;" style="rounded=1;whiteSpace=wrap;html=1;" vertex="1" parent="5sZzLFKiaspfi8mrWbHo-495">
          <mxGeometry x="260" y="55" width="50" height="20" as="geometry" />
        </mxCell>
        <mxCell id="5sZzLFKiaspfi8mrWbHo-599" value="&lt;font style=&quot;font-size: 9px;&quot;&gt;Delivered&lt;/font&gt;" style="rounded=1;whiteSpace=wrap;html=1;" vertex="1" parent="5sZzLFKiaspfi8mrWbHo-495">
          <mxGeometry x="330" y="55" width="50" height="20" as="geometry" />
        </mxCell>
        <mxCell id="5sZzLFKiaspfi8mrWbHo-613" value="" style="rounded=0;whiteSpace=wrap;html=1;" vertex="1" parent="5sZzLFKiaspfi8mrWbHo-495">
          <mxGeometry x="125" y="100" width="375" height="160" as="geometry" />
        </mxCell>
        <mxCell id="5sZzLFKiaspfi8mrWbHo-614" value="" style="endArrow=none;html=1;rounded=0;entryX=1.001;entryY=0.315;entryDx=0;entryDy=0;entryPerimeter=0;" edge="1" parent="5sZzLFKiaspfi8mrWbHo-495" target="5sZzLFKiaspfi8mrWbHo-613">
          <mxGeometry width="50" height="50" relative="1" as="geometry">
            <mxPoint x="125" y="150" as="sourcePoint" />
            <mxPoint x="175" y="100" as="targetPoint" />
          </mxGeometry>
        </mxCell>
        <mxCell id="5sZzLFKiaspfi8mrWbHo-642" value="" style="endArrow=none;html=1;rounded=0;entryX=1.001;entryY=0.315;entryDx=0;entryDy=0;entryPerimeter=0;" edge="1" parent="5sZzLFKiaspfi8mrWbHo-495">
          <mxGeometry width="50" height="50" relative="1" as="geometry">
            <mxPoint x="125" y="125" as="sourcePoint" />
            <mxPoint x="500" y="125" as="targetPoint" />
          </mxGeometry>
        </mxCell>
        <mxCell id="5sZzLFKiaspfi8mrWbHo-645" value="" style="endArrow=none;html=1;rounded=0;entryX=1.001;entryY=0.315;entryDx=0;entryDy=0;entryPerimeter=0;" edge="1" parent="5sZzLFKiaspfi8mrWbHo-495">
          <mxGeometry width="50" height="50" relative="1" as="geometry">
            <mxPoint x="125" y="229.72" as="sourcePoint" />
            <mxPoint x="500" y="229.72" as="targetPoint" />
          </mxGeometry>
        </mxCell>
        <mxCell id="5sZzLFKiaspfi8mrWbHo-644" value="" style="endArrow=none;html=1;rounded=0;entryX=1.001;entryY=0.315;entryDx=0;entryDy=0;entryPerimeter=0;" edge="1" parent="5sZzLFKiaspfi8mrWbHo-495">
          <mxGeometry width="50" height="50" relative="1" as="geometry">
            <mxPoint x="125" y="200.00000000000003" as="sourcePoint" />
            <mxPoint x="500" y="200.00000000000003" as="targetPoint" />
          </mxGeometry>
        </mxCell>
        <mxCell id="5sZzLFKiaspfi8mrWbHo-643" value="" style="endArrow=none;html=1;rounded=0;entryX=1.001;entryY=0.315;entryDx=0;entryDy=0;entryPerimeter=0;" edge="1" parent="5sZzLFKiaspfi8mrWbHo-495">
          <mxGeometry width="50" height="50" relative="1" as="geometry">
            <mxPoint x="125" y="175.00000000000003" as="sourcePoint" />
            <mxPoint x="500" y="175.00000000000003" as="targetPoint" />
          </mxGeometry>
        </mxCell>
        <mxCell id="5sZzLFKiaspfi8mrWbHo-646" value="" style="endArrow=none;html=1;rounded=0;entryX=0.125;entryY=0.001;entryDx=0;entryDy=0;entryPerimeter=0;exitX=0.121;exitY=1.007;exitDx=0;exitDy=0;exitPerimeter=0;" edge="1" parent="5sZzLFKiaspfi8mrWbHo-495">
          <mxGeometry width="50" height="50" relative="1" as="geometry">
            <mxPoint x="159.995" y="260.96" as="sourcePoint" />
            <mxPoint x="161.495" y="99.99999999999997" as="targetPoint" />
          </mxGeometry>
        </mxCell>
        <mxCell id="5sZzLFKiaspfi8mrWbHo-647" value="" style="endArrow=none;html=1;rounded=0;entryX=0.125;entryY=0.001;entryDx=0;entryDy=0;entryPerimeter=0;exitX=0.121;exitY=1.007;exitDx=0;exitDy=0;exitPerimeter=0;" edge="1" parent="5sZzLFKiaspfi8mrWbHo-495">
          <mxGeometry width="50" height="50" relative="1" as="geometry">
            <mxPoint x="214" y="260" as="sourcePoint" />
            <mxPoint x="216" y="99" as="targetPoint" />
          </mxGeometry>
        </mxCell>
        <mxCell id="5sZzLFKiaspfi8mrWbHo-648" value="" style="endArrow=none;html=1;rounded=0;entryX=0.125;entryY=0.001;entryDx=0;entryDy=0;entryPerimeter=0;" edge="1" parent="5sZzLFKiaspfi8mrWbHo-495">
          <mxGeometry width="50" height="50" relative="1" as="geometry">
            <mxPoint x="271" y="261" as="sourcePoint" />
            <mxPoint x="271" y="99.5" as="targetPoint" />
          </mxGeometry>
        </mxCell>
        <mxCell id="5sZzLFKiaspfi8mrWbHo-649" value="" style="endArrow=none;html=1;rounded=0;entryX=0.125;entryY=0.001;entryDx=0;entryDy=0;entryPerimeter=0;" edge="1" parent="5sZzLFKiaspfi8mrWbHo-495">
          <mxGeometry width="50" height="50" relative="1" as="geometry">
            <mxPoint x="352" y="261" as="sourcePoint" />
            <mxPoint x="352" y="100" as="targetPoint" />
          </mxGeometry>
        </mxCell>
        <mxCell id="5sZzLFKiaspfi8mrWbHo-650" value="" style="endArrow=none;html=1;rounded=0;entryX=0.125;entryY=0.001;entryDx=0;entryDy=0;entryPerimeter=0;" edge="1" parent="5sZzLFKiaspfi8mrWbHo-495">
          <mxGeometry width="50" height="50" relative="1" as="geometry">
            <mxPoint x="402" y="260" as="sourcePoint" />
            <mxPoint x="402" y="99" as="targetPoint" />
          </mxGeometry>
        </mxCell>
        <mxCell id="5sZzLFKiaspfi8mrWbHo-651" value="" style="endArrow=none;html=1;rounded=0;entryX=0.125;entryY=0.001;entryDx=0;entryDy=0;entryPerimeter=0;" edge="1" parent="5sZzLFKiaspfi8mrWbHo-495">
          <mxGeometry width="50" height="50" relative="1" as="geometry">
            <mxPoint x="452" y="260" as="sourcePoint" />
            <mxPoint x="452" y="99" as="targetPoint" />
          </mxGeometry>
        </mxCell>
        <mxCell id="5sZzLFKiaspfi8mrWbHo-653" value="&lt;font style=&quot;font-size: 9px;&quot;&gt;Id&lt;/font&gt;" style="text;html=1;align=center;verticalAlign=middle;resizable=0;points=[];autosize=1;strokeColor=none;fillColor=none;" vertex="1" parent="5sZzLFKiaspfi8mrWbHo-495">
          <mxGeometry x="125" y="95" width="30" height="30" as="geometry" />
        </mxCell>
        <mxCell id="5sZzLFKiaspfi8mrWbHo-654" value="&lt;font style=&quot;font-size: 9px;&quot;&gt;Date&lt;/font&gt;" style="text;html=1;align=center;verticalAlign=middle;resizable=0;points=[];autosize=1;strokeColor=none;fillColor=none;" vertex="1" parent="5sZzLFKiaspfi8mrWbHo-495">
          <mxGeometry x="170" y="95" width="40" height="30" as="geometry" />
        </mxCell>
        <mxCell id="5sZzLFKiaspfi8mrWbHo-655" value="&lt;font style=&quot;font-size: 9px;&quot;&gt;Customer&lt;/font&gt;&lt;span style=&quot;color: rgba(0, 0, 0, 0); font-family: monospace; font-size: 0px; text-align: start;&quot;&gt;%3CmxGraphModel%3E%3Croot%3E%3CmxCell%20id%3D%220%22%2F%3E%3CmxCell%20id%3D%221%22%20parent%3D%220%22%2F%3E%3CmxCell%20id%3D%222%22%20value%3D%22%26lt%3Bfont%20style%3D%26quot%3Bfont-size%3A%209px%3B%26quot%3B%26gt%3BId%26lt%3B%2Ffont%26gt%3B%22%20style%3D%22text%3Bhtml%3D1%3Balign%3Dcenter%3BverticalAlign%3Dmiddle%3Bresizable%3D0%3Bpoints%3D%5B%5D%3Bautosize%3D1%3BstrokeColor%3Dnone%3BfillColor%3Dnone%3B%22%20vertex%3D%221%22%20parent%3D%221%22%3E%3CmxGeometry%20x%3D%22975%22%20y%3D%22235%22%20width%3D%2230%22%20height%3D%2230%22%20as%3D%22geometry%22%2F%3E%3C%2FmxCell%3E%3C%2Froot%3E%3C%2FmxGraphModel%3E&lt;/span&gt;" style="text;html=1;align=center;verticalAlign=middle;resizable=0;points=[];autosize=1;strokeColor=none;fillColor=none;" vertex="1" parent="5sZzLFKiaspfi8mrWbHo-495">
          <mxGeometry x="215" y="95" width="60" height="30" as="geometry" />
        </mxCell>
        <mxCell id="5sZzLFKiaspfi8mrWbHo-656" value="&lt;font style=&quot;font-size: 9px;&quot;&gt;Address&lt;/font&gt;" style="text;html=1;align=center;verticalAlign=middle;resizable=0;points=[];autosize=1;strokeColor=none;fillColor=none;" vertex="1" parent="5sZzLFKiaspfi8mrWbHo-495">
          <mxGeometry x="282.5" y="95" width="60" height="30" as="geometry" />
        </mxCell>
        <mxCell id="5sZzLFKiaspfi8mrWbHo-657" value="&lt;font style=&quot;font-size: 9px;&quot;&gt;Payment&amp;nbsp;&lt;/font&gt;&lt;div style=&quot;line-height: 50%;&quot;&gt;&lt;font style=&quot;font-size: 9px;&quot;&gt;Status&lt;/font&gt;&lt;/div&gt;" style="text;html=1;align=center;verticalAlign=middle;resizable=0;points=[];autosize=1;strokeColor=none;fillColor=none;" vertex="1" parent="5sZzLFKiaspfi8mrWbHo-495">
          <mxGeometry x="350" y="90" width="60" height="40" as="geometry" />
        </mxCell>
        <mxCell id="5sZzLFKiaspfi8mrWbHo-658" value="&lt;font style=&quot;font-size: 9px;&quot;&gt;Order&amp;nbsp;&lt;/font&gt;&lt;div style=&quot;line-height: 50%;&quot;&gt;&lt;font style=&quot;font-size: 9px;&quot;&gt;Status&lt;/font&gt;&lt;/div&gt;" style="text;html=1;align=center;verticalAlign=middle;resizable=0;points=[];autosize=1;strokeColor=none;fillColor=none;" vertex="1" parent="5sZzLFKiaspfi8mrWbHo-495">
          <mxGeometry x="400" y="90" width="50" height="40" as="geometry" />
        </mxCell>
        <mxCell id="5sZzLFKiaspfi8mrWbHo-659" value="&lt;font style=&quot;font-size: 9px;&quot;&gt;Items&lt;/font&gt;" style="text;html=1;align=center;verticalAlign=middle;resizable=0;points=[];autosize=1;strokeColor=none;fillColor=none;" vertex="1" parent="5sZzLFKiaspfi8mrWbHo-495">
          <mxGeometry x="450" y="95" width="50" height="30" as="geometry" />
        </mxCell>
        <mxCell id="5sZzLFKiaspfi8mrWbHo-660" value="" style="group" vertex="1" connectable="0" parent="1">
          <mxGeometry x="140" y="570" width="540" height="305" as="geometry" />
        </mxCell>
        <mxCell id="5sZzLFKiaspfi8mrWbHo-661" value="" style="rounded=0;whiteSpace=wrap;html=1;" vertex="1" parent="5sZzLFKiaspfi8mrWbHo-660">
          <mxGeometry y="5" width="540" height="300" as="geometry" />
        </mxCell>
        <mxCell id="5sZzLFKiaspfi8mrWbHo-662" value="" style="rounded=0;whiteSpace=wrap;html=1;" vertex="1" parent="5sZzLFKiaspfi8mrWbHo-660">
          <mxGeometry y="5" width="90" height="300" as="geometry" />
        </mxCell>
        <mxCell id="5sZzLFKiaspfi8mrWbHo-663" value="" style="endArrow=none;html=1;rounded=0;" edge="1" parent="5sZzLFKiaspfi8mrWbHo-660">
          <mxGeometry width="50" height="50" relative="1" as="geometry">
            <mxPoint x="90" y="45" as="sourcePoint" />
            <mxPoint y="45" as="targetPoint" />
          </mxGeometry>
        </mxCell>
        <mxCell id="5sZzLFKiaspfi8mrWbHo-664" value="" style="endArrow=none;html=1;rounded=0;" edge="1" parent="5sZzLFKiaspfi8mrWbHo-660">
          <mxGeometry width="50" height="50" relative="1" as="geometry">
            <mxPoint x="90" y="85" as="sourcePoint" />
            <mxPoint y="85" as="targetPoint" />
          </mxGeometry>
        </mxCell>
        <mxCell id="5sZzLFKiaspfi8mrWbHo-665" value="" style="endArrow=none;html=1;rounded=0;" edge="1" parent="5sZzLFKiaspfi8mrWbHo-660">
          <mxGeometry width="50" height="50" relative="1" as="geometry">
            <mxPoint x="90" y="205" as="sourcePoint" />
            <mxPoint y="205" as="targetPoint" />
          </mxGeometry>
        </mxCell>
        <mxCell id="5sZzLFKiaspfi8mrWbHo-666" value="" style="endArrow=none;html=1;rounded=0;" edge="1" parent="5sZzLFKiaspfi8mrWbHo-660">
          <mxGeometry width="50" height="50" relative="1" as="geometry">
            <mxPoint x="90" y="165" as="sourcePoint" />
            <mxPoint y="165" as="targetPoint" />
          </mxGeometry>
        </mxCell>
        <mxCell id="5sZzLFKiaspfi8mrWbHo-667" value="" style="endArrow=none;html=1;rounded=0;" edge="1" parent="5sZzLFKiaspfi8mrWbHo-660">
          <mxGeometry width="50" height="50" relative="1" as="geometry">
            <mxPoint x="90" y="125" as="sourcePoint" />
            <mxPoint y="125" as="targetPoint" />
          </mxGeometry>
        </mxCell>
        <mxCell id="5sZzLFKiaspfi8mrWbHo-668" value="Home" style="text;html=1;align=center;verticalAlign=middle;resizable=0;points=[];autosize=1;strokeColor=none;fillColor=none;" vertex="1" parent="5sZzLFKiaspfi8mrWbHo-660">
          <mxGeometry x="15" y="15" width="60" height="30" as="geometry" />
        </mxCell>
        <mxCell id="5sZzLFKiaspfi8mrWbHo-669" value="Orders" style="text;html=1;align=center;verticalAlign=middle;resizable=0;points=[];autosize=1;strokeColor=none;fillColor=none;" vertex="1" parent="5sZzLFKiaspfi8mrWbHo-660">
          <mxGeometry x="15" y="55" width="60" height="30" as="geometry" />
        </mxCell>
        <mxCell id="5sZzLFKiaspfi8mrWbHo-670" value="Products" style="text;html=1;align=center;verticalAlign=middle;resizable=0;points=[];autosize=1;strokeColor=#d79b00;fillColor=#ffe6cc;" vertex="1" parent="5sZzLFKiaspfi8mrWbHo-660">
          <mxGeometry x="10" y="95" width="70" height="30" as="geometry" />
        </mxCell>
        <mxCell id="5sZzLFKiaspfi8mrWbHo-671" value="Services" style="text;html=1;align=center;verticalAlign=middle;resizable=0;points=[];autosize=1;strokeColor=none;fillColor=none;" vertex="1" parent="5sZzLFKiaspfi8mrWbHo-660">
          <mxGeometry x="10" y="135" width="70" height="30" as="geometry" />
        </mxCell>
        <mxCell id="5sZzLFKiaspfi8mrWbHo-672" value="Payments" style="text;html=1;align=center;verticalAlign=middle;resizable=0;points=[];autosize=1;strokeColor=none;fillColor=none;" vertex="1" parent="5sZzLFKiaspfi8mrWbHo-660">
          <mxGeometry x="5" y="175" width="80" height="30" as="geometry" />
        </mxCell>
        <mxCell id="5sZzLFKiaspfi8mrWbHo-673" value="" style="endArrow=none;html=1;rounded=0;" edge="1" parent="5sZzLFKiaspfi8mrWbHo-660">
          <mxGeometry width="50" height="50" relative="1" as="geometry">
            <mxPoint x="90" y="245" as="sourcePoint" />
            <mxPoint y="245" as="targetPoint" />
          </mxGeometry>
        </mxCell>
        <mxCell id="5sZzLFKiaspfi8mrWbHo-674" value="" style="endArrow=none;html=1;rounded=0;" edge="1" parent="5sZzLFKiaspfi8mrWbHo-660">
          <mxGeometry width="50" height="50" relative="1" as="geometry">
            <mxPoint x="90" y="205" as="sourcePoint" />
            <mxPoint y="205" as="targetPoint" />
          </mxGeometry>
        </mxCell>
        <mxCell id="5sZzLFKiaspfi8mrWbHo-675" value="Profile" style="text;html=1;align=center;verticalAlign=middle;resizable=0;points=[];autosize=1;strokeColor=none;fillColor=none;" vertex="1" parent="5sZzLFKiaspfi8mrWbHo-660">
          <mxGeometry x="15" y="215" width="60" height="30" as="geometry" />
        </mxCell>
        <mxCell id="5sZzLFKiaspfi8mrWbHo-676" value="" style="endArrow=none;html=1;rounded=0;" edge="1" parent="5sZzLFKiaspfi8mrWbHo-660">
          <mxGeometry width="50" height="50" relative="1" as="geometry">
            <mxPoint x="90" y="285" as="sourcePoint" />
            <mxPoint y="285" as="targetPoint" />
          </mxGeometry>
        </mxCell>
        <mxCell id="5sZzLFKiaspfi8mrWbHo-677" value="" style="endArrow=none;html=1;rounded=0;" edge="1" parent="5sZzLFKiaspfi8mrWbHo-660">
          <mxGeometry width="50" height="50" relative="1" as="geometry">
            <mxPoint x="90" y="245" as="sourcePoint" />
            <mxPoint y="245" as="targetPoint" />
          </mxGeometry>
        </mxCell>
        <mxCell id="5sZzLFKiaspfi8mrWbHo-678" value="Reviews" style="text;html=1;align=center;verticalAlign=middle;resizable=0;points=[];autosize=1;strokeColor=none;fillColor=none;" vertex="1" parent="5sZzLFKiaspfi8mrWbHo-660">
          <mxGeometry x="10" y="255" width="70" height="30" as="geometry" />
        </mxCell>
        <mxCell id="5sZzLFKiaspfi8mrWbHo-679" value="&lt;h2&gt;&lt;font style=&quot;font-size: 18px;&quot;&gt;Products&lt;/font&gt;&lt;/h2&gt;" style="text;html=1;align=center;verticalAlign=middle;resizable=0;points=[];autosize=1;strokeColor=none;fillColor=none;" vertex="1" parent="5sZzLFKiaspfi8mrWbHo-660">
          <mxGeometry x="100" width="100" height="60" as="geometry" />
        </mxCell>
        <mxCell id="5sZzLFKiaspfi8mrWbHo-680" value="Logo" style="ellipse;whiteSpace=wrap;html=1;" vertex="1" parent="5sZzLFKiaspfi8mrWbHo-660">
          <mxGeometry x="480" y="15" width="50" height="45" as="geometry" />
        </mxCell>
        <mxCell id="5sZzLFKiaspfi8mrWbHo-710" value="" style="group" vertex="1" connectable="0" parent="5sZzLFKiaspfi8mrWbHo-660">
          <mxGeometry x="110" y="65" width="390" height="85" as="geometry" />
        </mxCell>
        <mxCell id="5sZzLFKiaspfi8mrWbHo-704" value="" style="rounded=1;whiteSpace=wrap;html=1;" vertex="1" parent="5sZzLFKiaspfi8mrWbHo-710">
          <mxGeometry width="390" height="85" as="geometry" />
        </mxCell>
        <mxCell id="5sZzLFKiaspfi8mrWbHo-706" value="Image" style="rounded=1;whiteSpace=wrap;html=1;" vertex="1" parent="5sZzLFKiaspfi8mrWbHo-710">
          <mxGeometry width="100" height="85" as="geometry" />
        </mxCell>
        <mxCell id="5sZzLFKiaspfi8mrWbHo-707" value="Name" style="text;html=1;align=center;verticalAlign=middle;resizable=0;points=[];autosize=1;strokeColor=none;fillColor=none;" vertex="1" parent="5sZzLFKiaspfi8mrWbHo-710">
          <mxGeometry x="100" width="60" height="30" as="geometry" />
        </mxCell>
        <mxCell id="5sZzLFKiaspfi8mrWbHo-708" value="Description....." style="text;html=1;align=center;verticalAlign=middle;resizable=0;points=[];autosize=1;strokeColor=none;fillColor=none;" vertex="1" parent="5sZzLFKiaspfi8mrWbHo-710">
          <mxGeometry x="100" y="30" width="100" height="30" as="geometry" />
        </mxCell>
        <mxCell id="5sZzLFKiaspfi8mrWbHo-709" value="Price" style="text;html=1;align=center;verticalAlign=middle;resizable=0;points=[];autosize=1;strokeColor=none;fillColor=none;" vertex="1" parent="5sZzLFKiaspfi8mrWbHo-710">
          <mxGeometry x="330" width="50" height="30" as="geometry" />
        </mxCell>
        <mxCell id="5sZzLFKiaspfi8mrWbHo-711" value="" style="group" vertex="1" connectable="0" parent="5sZzLFKiaspfi8mrWbHo-660">
          <mxGeometry x="110" y="160" width="390" height="85" as="geometry" />
        </mxCell>
        <mxCell id="5sZzLFKiaspfi8mrWbHo-712" value="" style="rounded=1;whiteSpace=wrap;html=1;" vertex="1" parent="5sZzLFKiaspfi8mrWbHo-711">
          <mxGeometry width="390" height="85" as="geometry" />
        </mxCell>
        <mxCell id="5sZzLFKiaspfi8mrWbHo-713" value="Image" style="rounded=1;whiteSpace=wrap;html=1;" vertex="1" parent="5sZzLFKiaspfi8mrWbHo-711">
          <mxGeometry width="100" height="85" as="geometry" />
        </mxCell>
        <mxCell id="5sZzLFKiaspfi8mrWbHo-714" value="Name" style="text;html=1;align=center;verticalAlign=middle;resizable=0;points=[];autosize=1;strokeColor=none;fillColor=none;" vertex="1" parent="5sZzLFKiaspfi8mrWbHo-711">
          <mxGeometry x="100" width="60" height="30" as="geometry" />
        </mxCell>
        <mxCell id="5sZzLFKiaspfi8mrWbHo-715" value="Description....." style="text;html=1;align=center;verticalAlign=middle;resizable=0;points=[];autosize=1;strokeColor=none;fillColor=none;" vertex="1" parent="5sZzLFKiaspfi8mrWbHo-711">
          <mxGeometry x="100" y="30" width="100" height="30" as="geometry" />
        </mxCell>
        <mxCell id="5sZzLFKiaspfi8mrWbHo-716" value="Price" style="text;html=1;align=center;verticalAlign=middle;resizable=0;points=[];autosize=1;strokeColor=none;fillColor=none;" vertex="1" parent="5sZzLFKiaspfi8mrWbHo-711">
          <mxGeometry x="330" width="50" height="30" as="geometry" />
        </mxCell>
        <mxCell id="5sZzLFKiaspfi8mrWbHo-723" value="Add Product" style="rounded=1;whiteSpace=wrap;html=1;fillColor=#dae8fc;strokeColor=#6c8ebf;" vertex="1" parent="5sZzLFKiaspfi8mrWbHo-660">
          <mxGeometry x="430" y="257.5" width="80" height="25" as="geometry" />
        </mxCell>
        <mxCell id="5sZzLFKiaspfi8mrWbHo-725" value="" style="group" vertex="1" connectable="0" parent="1">
          <mxGeometry x="980" y="570" width="540" height="305" as="geometry" />
        </mxCell>
        <mxCell id="5sZzLFKiaspfi8mrWbHo-726" value="" style="rounded=0;whiteSpace=wrap;html=1;" vertex="1" parent="5sZzLFKiaspfi8mrWbHo-725">
          <mxGeometry y="5" width="540" height="300" as="geometry" />
        </mxCell>
        <mxCell id="5sZzLFKiaspfi8mrWbHo-727" value="" style="rounded=0;whiteSpace=wrap;html=1;" vertex="1" parent="5sZzLFKiaspfi8mrWbHo-725">
          <mxGeometry y="5" width="90" height="300" as="geometry" />
        </mxCell>
        <mxCell id="5sZzLFKiaspfi8mrWbHo-728" value="" style="endArrow=none;html=1;rounded=0;" edge="1" parent="5sZzLFKiaspfi8mrWbHo-725">
          <mxGeometry width="50" height="50" relative="1" as="geometry">
            <mxPoint x="90" y="45" as="sourcePoint" />
            <mxPoint y="45" as="targetPoint" />
          </mxGeometry>
        </mxCell>
        <mxCell id="5sZzLFKiaspfi8mrWbHo-729" value="" style="endArrow=none;html=1;rounded=0;" edge="1" parent="5sZzLFKiaspfi8mrWbHo-725">
          <mxGeometry width="50" height="50" relative="1" as="geometry">
            <mxPoint x="90" y="85" as="sourcePoint" />
            <mxPoint y="85" as="targetPoint" />
          </mxGeometry>
        </mxCell>
        <mxCell id="5sZzLFKiaspfi8mrWbHo-730" value="" style="endArrow=none;html=1;rounded=0;" edge="1" parent="5sZzLFKiaspfi8mrWbHo-725">
          <mxGeometry width="50" height="50" relative="1" as="geometry">
            <mxPoint x="90" y="205" as="sourcePoint" />
            <mxPoint y="205" as="targetPoint" />
          </mxGeometry>
        </mxCell>
        <mxCell id="5sZzLFKiaspfi8mrWbHo-731" value="" style="endArrow=none;html=1;rounded=0;" edge="1" parent="5sZzLFKiaspfi8mrWbHo-725">
          <mxGeometry width="50" height="50" relative="1" as="geometry">
            <mxPoint x="90" y="165" as="sourcePoint" />
            <mxPoint y="165" as="targetPoint" />
          </mxGeometry>
        </mxCell>
        <mxCell id="5sZzLFKiaspfi8mrWbHo-732" value="" style="endArrow=none;html=1;rounded=0;" edge="1" parent="5sZzLFKiaspfi8mrWbHo-725">
          <mxGeometry width="50" height="50" relative="1" as="geometry">
            <mxPoint x="90" y="125" as="sourcePoint" />
            <mxPoint y="125" as="targetPoint" />
          </mxGeometry>
        </mxCell>
        <mxCell id="5sZzLFKiaspfi8mrWbHo-733" value="Home" style="text;html=1;align=center;verticalAlign=middle;resizable=0;points=[];autosize=1;strokeColor=none;fillColor=none;" vertex="1" parent="5sZzLFKiaspfi8mrWbHo-725">
          <mxGeometry x="15" y="15" width="60" height="30" as="geometry" />
        </mxCell>
        <mxCell id="5sZzLFKiaspfi8mrWbHo-734" value="Orders" style="text;html=1;align=center;verticalAlign=middle;resizable=0;points=[];autosize=1;strokeColor=none;fillColor=none;" vertex="1" parent="5sZzLFKiaspfi8mrWbHo-725">
          <mxGeometry x="15" y="55" width="60" height="30" as="geometry" />
        </mxCell>
        <mxCell id="5sZzLFKiaspfi8mrWbHo-735" value="Products" style="text;html=1;align=center;verticalAlign=middle;resizable=0;points=[];autosize=1;strokeColor=none;fillColor=none;" vertex="1" parent="5sZzLFKiaspfi8mrWbHo-725">
          <mxGeometry x="10" y="95" width="70" height="30" as="geometry" />
        </mxCell>
        <mxCell id="5sZzLFKiaspfi8mrWbHo-736" value="Services" style="text;html=1;align=center;verticalAlign=middle;resizable=0;points=[];autosize=1;strokeColor=#d79b00;fillColor=#ffe6cc;" vertex="1" parent="5sZzLFKiaspfi8mrWbHo-725">
          <mxGeometry x="10" y="135" width="70" height="30" as="geometry" />
        </mxCell>
        <mxCell id="5sZzLFKiaspfi8mrWbHo-737" value="Payments" style="text;html=1;align=center;verticalAlign=middle;resizable=0;points=[];autosize=1;strokeColor=none;fillColor=none;" vertex="1" parent="5sZzLFKiaspfi8mrWbHo-725">
          <mxGeometry x="5" y="175" width="80" height="30" as="geometry" />
        </mxCell>
        <mxCell id="5sZzLFKiaspfi8mrWbHo-738" value="" style="endArrow=none;html=1;rounded=0;" edge="1" parent="5sZzLFKiaspfi8mrWbHo-725">
          <mxGeometry width="50" height="50" relative="1" as="geometry">
            <mxPoint x="90" y="245" as="sourcePoint" />
            <mxPoint y="245" as="targetPoint" />
          </mxGeometry>
        </mxCell>
        <mxCell id="5sZzLFKiaspfi8mrWbHo-739" value="" style="endArrow=none;html=1;rounded=0;" edge="1" parent="5sZzLFKiaspfi8mrWbHo-725">
          <mxGeometry width="50" height="50" relative="1" as="geometry">
            <mxPoint x="90" y="205" as="sourcePoint" />
            <mxPoint y="205" as="targetPoint" />
          </mxGeometry>
        </mxCell>
        <mxCell id="5sZzLFKiaspfi8mrWbHo-740" value="Profile" style="text;html=1;align=center;verticalAlign=middle;resizable=0;points=[];autosize=1;strokeColor=none;fillColor=none;" vertex="1" parent="5sZzLFKiaspfi8mrWbHo-725">
          <mxGeometry x="15" y="215" width="60" height="30" as="geometry" />
        </mxCell>
        <mxCell id="5sZzLFKiaspfi8mrWbHo-741" value="" style="endArrow=none;html=1;rounded=0;" edge="1" parent="5sZzLFKiaspfi8mrWbHo-725">
          <mxGeometry width="50" height="50" relative="1" as="geometry">
            <mxPoint x="90" y="285" as="sourcePoint" />
            <mxPoint y="285" as="targetPoint" />
          </mxGeometry>
        </mxCell>
        <mxCell id="5sZzLFKiaspfi8mrWbHo-742" value="" style="endArrow=none;html=1;rounded=0;" edge="1" parent="5sZzLFKiaspfi8mrWbHo-725">
          <mxGeometry width="50" height="50" relative="1" as="geometry">
            <mxPoint x="90" y="245" as="sourcePoint" />
            <mxPoint y="245" as="targetPoint" />
          </mxGeometry>
        </mxCell>
        <mxCell id="5sZzLFKiaspfi8mrWbHo-743" value="Reviews" style="text;html=1;align=center;verticalAlign=middle;resizable=0;points=[];autosize=1;strokeColor=none;fillColor=none;" vertex="1" parent="5sZzLFKiaspfi8mrWbHo-725">
          <mxGeometry x="10" y="255" width="70" height="30" as="geometry" />
        </mxCell>
        <mxCell id="5sZzLFKiaspfi8mrWbHo-744" value="&lt;h2&gt;&lt;font style=&quot;font-size: 18px;&quot;&gt;Services&lt;/font&gt;&lt;/h2&gt;" style="text;html=1;align=center;verticalAlign=middle;resizable=0;points=[];autosize=1;strokeColor=none;fillColor=none;" vertex="1" parent="5sZzLFKiaspfi8mrWbHo-725">
          <mxGeometry x="100" width="100" height="60" as="geometry" />
        </mxCell>
        <mxCell id="5sZzLFKiaspfi8mrWbHo-745" value="Logo" style="ellipse;whiteSpace=wrap;html=1;" vertex="1" parent="5sZzLFKiaspfi8mrWbHo-725">
          <mxGeometry x="480" y="15" width="50" height="45" as="geometry" />
        </mxCell>
        <mxCell id="5sZzLFKiaspfi8mrWbHo-746" value="" style="group" vertex="1" connectable="0" parent="5sZzLFKiaspfi8mrWbHo-725">
          <mxGeometry x="110" y="65" width="390" height="85" as="geometry" />
        </mxCell>
        <mxCell id="5sZzLFKiaspfi8mrWbHo-747" value="" style="rounded=1;whiteSpace=wrap;html=1;" vertex="1" parent="5sZzLFKiaspfi8mrWbHo-746">
          <mxGeometry width="390" height="85" as="geometry" />
        </mxCell>
        <mxCell id="5sZzLFKiaspfi8mrWbHo-748" value="Image" style="rounded=1;whiteSpace=wrap;html=1;" vertex="1" parent="5sZzLFKiaspfi8mrWbHo-746">
          <mxGeometry width="100" height="85" as="geometry" />
        </mxCell>
        <mxCell id="5sZzLFKiaspfi8mrWbHo-749" value="Name" style="text;html=1;align=center;verticalAlign=middle;resizable=0;points=[];autosize=1;strokeColor=none;fillColor=none;" vertex="1" parent="5sZzLFKiaspfi8mrWbHo-746">
          <mxGeometry x="100" width="60" height="30" as="geometry" />
        </mxCell>
        <mxCell id="5sZzLFKiaspfi8mrWbHo-750" value="Description....." style="text;html=1;align=center;verticalAlign=middle;resizable=0;points=[];autosize=1;strokeColor=none;fillColor=none;" vertex="1" parent="5sZzLFKiaspfi8mrWbHo-746">
          <mxGeometry x="100" y="30" width="100" height="30" as="geometry" />
        </mxCell>
        <mxCell id="5sZzLFKiaspfi8mrWbHo-751" value="Price" style="text;html=1;align=center;verticalAlign=middle;resizable=0;points=[];autosize=1;strokeColor=none;fillColor=none;" vertex="1" parent="5sZzLFKiaspfi8mrWbHo-746">
          <mxGeometry x="330" width="50" height="30" as="geometry" />
        </mxCell>
        <mxCell id="5sZzLFKiaspfi8mrWbHo-759" value="Way" style="text;html=1;align=center;verticalAlign=middle;resizable=0;points=[];autosize=1;strokeColor=none;fillColor=none;" vertex="1" parent="5sZzLFKiaspfi8mrWbHo-746">
          <mxGeometry x="330" y="27.5" width="50" height="30" as="geometry" />
        </mxCell>
        <mxCell id="5sZzLFKiaspfi8mrWbHo-752" value="" style="group" vertex="1" connectable="0" parent="5sZzLFKiaspfi8mrWbHo-725">
          <mxGeometry x="110" y="160" width="390" height="85" as="geometry" />
        </mxCell>
        <mxCell id="5sZzLFKiaspfi8mrWbHo-753" value="" style="rounded=1;whiteSpace=wrap;html=1;" vertex="1" parent="5sZzLFKiaspfi8mrWbHo-752">
          <mxGeometry width="390" height="85" as="geometry" />
        </mxCell>
        <mxCell id="5sZzLFKiaspfi8mrWbHo-754" value="Image" style="rounded=1;whiteSpace=wrap;html=1;" vertex="1" parent="5sZzLFKiaspfi8mrWbHo-752">
          <mxGeometry width="100" height="85" as="geometry" />
        </mxCell>
        <mxCell id="5sZzLFKiaspfi8mrWbHo-755" value="Name" style="text;html=1;align=center;verticalAlign=middle;resizable=0;points=[];autosize=1;strokeColor=none;fillColor=none;" vertex="1" parent="5sZzLFKiaspfi8mrWbHo-752">
          <mxGeometry x="100" width="60" height="30" as="geometry" />
        </mxCell>
        <mxCell id="5sZzLFKiaspfi8mrWbHo-756" value="Description....." style="text;html=1;align=center;verticalAlign=middle;resizable=0;points=[];autosize=1;strokeColor=none;fillColor=none;" vertex="1" parent="5sZzLFKiaspfi8mrWbHo-752">
          <mxGeometry x="100" y="30" width="100" height="30" as="geometry" />
        </mxCell>
        <mxCell id="5sZzLFKiaspfi8mrWbHo-757" value="Price" style="text;html=1;align=center;verticalAlign=middle;resizable=0;points=[];autosize=1;strokeColor=none;fillColor=none;" vertex="1" parent="5sZzLFKiaspfi8mrWbHo-752">
          <mxGeometry x="330" width="50" height="30" as="geometry" />
        </mxCell>
        <mxCell id="5sZzLFKiaspfi8mrWbHo-760" value="Way" style="text;html=1;align=center;verticalAlign=middle;resizable=0;points=[];autosize=1;strokeColor=none;fillColor=none;" vertex="1" parent="5sZzLFKiaspfi8mrWbHo-752">
          <mxGeometry x="330" y="30" width="50" height="30" as="geometry" />
        </mxCell>
        <mxCell id="5sZzLFKiaspfi8mrWbHo-758" value="Add Service" style="rounded=1;whiteSpace=wrap;html=1;fillColor=#dae8fc;strokeColor=#6c8ebf;" vertex="1" parent="5sZzLFKiaspfi8mrWbHo-725">
          <mxGeometry x="430" y="257.5" width="80" height="25" as="geometry" />
        </mxCell>
        <mxCell id="5sZzLFKiaspfi8mrWbHo-761" value="" style="group" vertex="1" connectable="0" parent="1">
          <mxGeometry x="144" y="1000" width="540" height="305" as="geometry" />
        </mxCell>
        <mxCell id="5sZzLFKiaspfi8mrWbHo-762" value="" style="rounded=0;whiteSpace=wrap;html=1;" vertex="1" parent="5sZzLFKiaspfi8mrWbHo-761">
          <mxGeometry y="5" width="540" height="300" as="geometry" />
        </mxCell>
        <mxCell id="5sZzLFKiaspfi8mrWbHo-763" value="" style="rounded=0;whiteSpace=wrap;html=1;" vertex="1" parent="5sZzLFKiaspfi8mrWbHo-761">
          <mxGeometry y="5" width="90" height="300" as="geometry" />
        </mxCell>
        <mxCell id="5sZzLFKiaspfi8mrWbHo-764" value="" style="endArrow=none;html=1;rounded=0;" edge="1" parent="5sZzLFKiaspfi8mrWbHo-761">
          <mxGeometry width="50" height="50" relative="1" as="geometry">
            <mxPoint x="90" y="45" as="sourcePoint" />
            <mxPoint y="45" as="targetPoint" />
          </mxGeometry>
        </mxCell>
        <mxCell id="5sZzLFKiaspfi8mrWbHo-765" value="" style="endArrow=none;html=1;rounded=0;" edge="1" parent="5sZzLFKiaspfi8mrWbHo-761">
          <mxGeometry width="50" height="50" relative="1" as="geometry">
            <mxPoint x="90" y="85" as="sourcePoint" />
            <mxPoint y="85" as="targetPoint" />
          </mxGeometry>
        </mxCell>
        <mxCell id="5sZzLFKiaspfi8mrWbHo-766" value="" style="endArrow=none;html=1;rounded=0;" edge="1" parent="5sZzLFKiaspfi8mrWbHo-761">
          <mxGeometry width="50" height="50" relative="1" as="geometry">
            <mxPoint x="90" y="205" as="sourcePoint" />
            <mxPoint y="205" as="targetPoint" />
          </mxGeometry>
        </mxCell>
        <mxCell id="5sZzLFKiaspfi8mrWbHo-767" value="" style="endArrow=none;html=1;rounded=0;" edge="1" parent="5sZzLFKiaspfi8mrWbHo-761">
          <mxGeometry width="50" height="50" relative="1" as="geometry">
            <mxPoint x="90" y="165" as="sourcePoint" />
            <mxPoint y="165" as="targetPoint" />
          </mxGeometry>
        </mxCell>
        <mxCell id="5sZzLFKiaspfi8mrWbHo-768" value="" style="endArrow=none;html=1;rounded=0;" edge="1" parent="5sZzLFKiaspfi8mrWbHo-761">
          <mxGeometry width="50" height="50" relative="1" as="geometry">
            <mxPoint x="90" y="125" as="sourcePoint" />
            <mxPoint y="125" as="targetPoint" />
          </mxGeometry>
        </mxCell>
        <mxCell id="5sZzLFKiaspfi8mrWbHo-769" value="Home" style="text;html=1;align=center;verticalAlign=middle;resizable=0;points=[];autosize=1;strokeColor=none;fillColor=none;" vertex="1" parent="5sZzLFKiaspfi8mrWbHo-761">
          <mxGeometry x="15" y="15" width="60" height="30" as="geometry" />
        </mxCell>
        <mxCell id="5sZzLFKiaspfi8mrWbHo-770" value="Orders" style="text;html=1;align=center;verticalAlign=middle;resizable=0;points=[];autosize=1;strokeColor=none;fillColor=none;" vertex="1" parent="5sZzLFKiaspfi8mrWbHo-761">
          <mxGeometry x="15" y="55" width="60" height="30" as="geometry" />
        </mxCell>
        <mxCell id="5sZzLFKiaspfi8mrWbHo-771" value="Products" style="text;html=1;align=center;verticalAlign=middle;resizable=0;points=[];autosize=1;strokeColor=#d79b00;fillColor=#ffe6cc;" vertex="1" parent="5sZzLFKiaspfi8mrWbHo-761">
          <mxGeometry x="10" y="95" width="70" height="30" as="geometry" />
        </mxCell>
        <mxCell id="5sZzLFKiaspfi8mrWbHo-772" value="Services" style="text;html=1;align=center;verticalAlign=middle;resizable=0;points=[];autosize=1;strokeColor=none;fillColor=none;" vertex="1" parent="5sZzLFKiaspfi8mrWbHo-761">
          <mxGeometry x="10" y="135" width="70" height="30" as="geometry" />
        </mxCell>
        <mxCell id="5sZzLFKiaspfi8mrWbHo-773" value="Payments" style="text;html=1;align=center;verticalAlign=middle;resizable=0;points=[];autosize=1;strokeColor=none;fillColor=none;" vertex="1" parent="5sZzLFKiaspfi8mrWbHo-761">
          <mxGeometry x="5" y="175" width="80" height="30" as="geometry" />
        </mxCell>
        <mxCell id="5sZzLFKiaspfi8mrWbHo-774" value="" style="endArrow=none;html=1;rounded=0;" edge="1" parent="5sZzLFKiaspfi8mrWbHo-761">
          <mxGeometry width="50" height="50" relative="1" as="geometry">
            <mxPoint x="90" y="245" as="sourcePoint" />
            <mxPoint y="245" as="targetPoint" />
          </mxGeometry>
        </mxCell>
        <mxCell id="5sZzLFKiaspfi8mrWbHo-775" value="" style="endArrow=none;html=1;rounded=0;" edge="1" parent="5sZzLFKiaspfi8mrWbHo-761">
          <mxGeometry width="50" height="50" relative="1" as="geometry">
            <mxPoint x="90" y="205" as="sourcePoint" />
            <mxPoint y="205" as="targetPoint" />
          </mxGeometry>
        </mxCell>
        <mxCell id="5sZzLFKiaspfi8mrWbHo-776" value="Profile" style="text;html=1;align=center;verticalAlign=middle;resizable=0;points=[];autosize=1;strokeColor=none;fillColor=none;" vertex="1" parent="5sZzLFKiaspfi8mrWbHo-761">
          <mxGeometry x="15" y="215" width="60" height="30" as="geometry" />
        </mxCell>
        <mxCell id="5sZzLFKiaspfi8mrWbHo-777" value="" style="endArrow=none;html=1;rounded=0;" edge="1" parent="5sZzLFKiaspfi8mrWbHo-761">
          <mxGeometry width="50" height="50" relative="1" as="geometry">
            <mxPoint x="90" y="285" as="sourcePoint" />
            <mxPoint y="285" as="targetPoint" />
          </mxGeometry>
        </mxCell>
        <mxCell id="5sZzLFKiaspfi8mrWbHo-778" value="" style="endArrow=none;html=1;rounded=0;" edge="1" parent="5sZzLFKiaspfi8mrWbHo-761">
          <mxGeometry width="50" height="50" relative="1" as="geometry">
            <mxPoint x="90" y="245" as="sourcePoint" />
            <mxPoint y="245" as="targetPoint" />
          </mxGeometry>
        </mxCell>
        <mxCell id="5sZzLFKiaspfi8mrWbHo-779" value="Reviews" style="text;html=1;align=center;verticalAlign=middle;resizable=0;points=[];autosize=1;strokeColor=none;fillColor=none;" vertex="1" parent="5sZzLFKiaspfi8mrWbHo-761">
          <mxGeometry x="10" y="255" width="70" height="30" as="geometry" />
        </mxCell>
        <mxCell id="5sZzLFKiaspfi8mrWbHo-780" value="&lt;h2&gt;&lt;font style=&quot;font-size: 18px;&quot;&gt;Add Product&lt;/font&gt;&lt;/h2&gt;" style="text;html=1;align=center;verticalAlign=middle;resizable=0;points=[];autosize=1;strokeColor=none;fillColor=none;" vertex="1" parent="5sZzLFKiaspfi8mrWbHo-761">
          <mxGeometry x="100" width="130" height="60" as="geometry" />
        </mxCell>
        <mxCell id="5sZzLFKiaspfi8mrWbHo-781" value="Logo" style="ellipse;whiteSpace=wrap;html=1;" vertex="1" parent="5sZzLFKiaspfi8mrWbHo-761">
          <mxGeometry x="480" y="15" width="50" height="45" as="geometry" />
        </mxCell>
        <mxCell id="5sZzLFKiaspfi8mrWbHo-782" value="" style="group" vertex="1" connectable="0" parent="5sZzLFKiaspfi8mrWbHo-761">
          <mxGeometry x="110" y="62.5" width="390" height="175" as="geometry" />
        </mxCell>
        <mxCell id="5sZzLFKiaspfi8mrWbHo-783" value="" style="rounded=1;whiteSpace=wrap;html=1;" vertex="1" parent="5sZzLFKiaspfi8mrWbHo-782">
          <mxGeometry width="390" height="174.99999999999997" as="geometry" />
        </mxCell>
        <mxCell id="5sZzLFKiaspfi8mrWbHo-784" value="Add Image" style="rounded=1;whiteSpace=wrap;html=1;" vertex="1" parent="5sZzLFKiaspfi8mrWbHo-782">
          <mxGeometry width="140" height="175" as="geometry" />
        </mxCell>
        <mxCell id="5sZzLFKiaspfi8mrWbHo-795" value="Name" style="rounded=0;whiteSpace=wrap;html=1;" vertex="1" parent="5sZzLFKiaspfi8mrWbHo-782">
          <mxGeometry x="150" y="12.5" width="110" height="27.5" as="geometry" />
        </mxCell>
        <mxCell id="5sZzLFKiaspfi8mrWbHo-796" value="Description" style="rounded=0;whiteSpace=wrap;html=1;" vertex="1" parent="5sZzLFKiaspfi8mrWbHo-782">
          <mxGeometry x="150" y="57.5" width="220" height="102.5" as="geometry" />
        </mxCell>
        <mxCell id="5sZzLFKiaspfi8mrWbHo-797" value="Price" style="rounded=0;whiteSpace=wrap;html=1;" vertex="1" parent="5sZzLFKiaspfi8mrWbHo-782">
          <mxGeometry x="270" y="12.5" width="100" height="27.5" as="geometry" />
        </mxCell>
        <mxCell id="5sZzLFKiaspfi8mrWbHo-794" value="Save Changes" style="rounded=1;whiteSpace=wrap;html=1;fillColor=#dae8fc;strokeColor=#6c8ebf;" vertex="1" parent="5sZzLFKiaspfi8mrWbHo-761">
          <mxGeometry x="430" y="257.5" width="90" height="25" as="geometry" />
        </mxCell>
        <mxCell id="5sZzLFKiaspfi8mrWbHo-798" value="" style="group" vertex="1" connectable="0" parent="1">
          <mxGeometry x="971" y="1000" width="540" height="305" as="geometry" />
        </mxCell>
        <mxCell id="5sZzLFKiaspfi8mrWbHo-799" value="" style="rounded=0;whiteSpace=wrap;html=1;" vertex="1" parent="5sZzLFKiaspfi8mrWbHo-798">
          <mxGeometry y="5" width="540" height="300" as="geometry" />
        </mxCell>
        <mxCell id="5sZzLFKiaspfi8mrWbHo-800" value="" style="rounded=0;whiteSpace=wrap;html=1;" vertex="1" parent="5sZzLFKiaspfi8mrWbHo-798">
          <mxGeometry y="5" width="90" height="300" as="geometry" />
        </mxCell>
        <mxCell id="5sZzLFKiaspfi8mrWbHo-801" value="" style="endArrow=none;html=1;rounded=0;" edge="1" parent="5sZzLFKiaspfi8mrWbHo-798">
          <mxGeometry width="50" height="50" relative="1" as="geometry">
            <mxPoint x="90" y="45" as="sourcePoint" />
            <mxPoint y="45" as="targetPoint" />
          </mxGeometry>
        </mxCell>
        <mxCell id="5sZzLFKiaspfi8mrWbHo-802" value="" style="endArrow=none;html=1;rounded=0;" edge="1" parent="5sZzLFKiaspfi8mrWbHo-798">
          <mxGeometry width="50" height="50" relative="1" as="geometry">
            <mxPoint x="90" y="85" as="sourcePoint" />
            <mxPoint y="85" as="targetPoint" />
          </mxGeometry>
        </mxCell>
        <mxCell id="5sZzLFKiaspfi8mrWbHo-803" value="" style="endArrow=none;html=1;rounded=0;" edge="1" parent="5sZzLFKiaspfi8mrWbHo-798">
          <mxGeometry width="50" height="50" relative="1" as="geometry">
            <mxPoint x="90" y="205" as="sourcePoint" />
            <mxPoint y="205" as="targetPoint" />
          </mxGeometry>
        </mxCell>
        <mxCell id="5sZzLFKiaspfi8mrWbHo-804" value="" style="endArrow=none;html=1;rounded=0;" edge="1" parent="5sZzLFKiaspfi8mrWbHo-798">
          <mxGeometry width="50" height="50" relative="1" as="geometry">
            <mxPoint x="90" y="165" as="sourcePoint" />
            <mxPoint y="165" as="targetPoint" />
          </mxGeometry>
        </mxCell>
        <mxCell id="5sZzLFKiaspfi8mrWbHo-805" value="" style="endArrow=none;html=1;rounded=0;" edge="1" parent="5sZzLFKiaspfi8mrWbHo-798">
          <mxGeometry width="50" height="50" relative="1" as="geometry">
            <mxPoint x="90" y="125" as="sourcePoint" />
            <mxPoint y="125" as="targetPoint" />
          </mxGeometry>
        </mxCell>
        <mxCell id="5sZzLFKiaspfi8mrWbHo-806" value="Home" style="text;html=1;align=center;verticalAlign=middle;resizable=0;points=[];autosize=1;strokeColor=none;fillColor=none;" vertex="1" parent="5sZzLFKiaspfi8mrWbHo-798">
          <mxGeometry x="15" y="15" width="60" height="30" as="geometry" />
        </mxCell>
        <mxCell id="5sZzLFKiaspfi8mrWbHo-807" value="Orders" style="text;html=1;align=center;verticalAlign=middle;resizable=0;points=[];autosize=1;strokeColor=none;fillColor=none;" vertex="1" parent="5sZzLFKiaspfi8mrWbHo-798">
          <mxGeometry x="15" y="55" width="60" height="30" as="geometry" />
        </mxCell>
        <mxCell id="5sZzLFKiaspfi8mrWbHo-808" value="Products" style="text;html=1;align=center;verticalAlign=middle;resizable=0;points=[];autosize=1;strokeColor=none;fillColor=none;" vertex="1" parent="5sZzLFKiaspfi8mrWbHo-798">
          <mxGeometry x="10" y="95" width="70" height="30" as="geometry" />
        </mxCell>
        <mxCell id="5sZzLFKiaspfi8mrWbHo-809" value="Services" style="text;html=1;align=center;verticalAlign=middle;resizable=0;points=[];autosize=1;strokeColor=#d79b00;fillColor=#ffe6cc;" vertex="1" parent="5sZzLFKiaspfi8mrWbHo-798">
          <mxGeometry x="10" y="135" width="70" height="30" as="geometry" />
        </mxCell>
        <mxCell id="5sZzLFKiaspfi8mrWbHo-810" value="Payments" style="text;html=1;align=center;verticalAlign=middle;resizable=0;points=[];autosize=1;strokeColor=none;fillColor=none;" vertex="1" parent="5sZzLFKiaspfi8mrWbHo-798">
          <mxGeometry x="5" y="175" width="80" height="30" as="geometry" />
        </mxCell>
        <mxCell id="5sZzLFKiaspfi8mrWbHo-811" value="" style="endArrow=none;html=1;rounded=0;" edge="1" parent="5sZzLFKiaspfi8mrWbHo-798">
          <mxGeometry width="50" height="50" relative="1" as="geometry">
            <mxPoint x="90" y="245" as="sourcePoint" />
            <mxPoint y="245" as="targetPoint" />
          </mxGeometry>
        </mxCell>
        <mxCell id="5sZzLFKiaspfi8mrWbHo-812" value="" style="endArrow=none;html=1;rounded=0;" edge="1" parent="5sZzLFKiaspfi8mrWbHo-798">
          <mxGeometry width="50" height="50" relative="1" as="geometry">
            <mxPoint x="90" y="205" as="sourcePoint" />
            <mxPoint y="205" as="targetPoint" />
          </mxGeometry>
        </mxCell>
        <mxCell id="5sZzLFKiaspfi8mrWbHo-813" value="Profile" style="text;html=1;align=center;verticalAlign=middle;resizable=0;points=[];autosize=1;strokeColor=none;fillColor=none;" vertex="1" parent="5sZzLFKiaspfi8mrWbHo-798">
          <mxGeometry x="15" y="215" width="60" height="30" as="geometry" />
        </mxCell>
        <mxCell id="5sZzLFKiaspfi8mrWbHo-814" value="" style="endArrow=none;html=1;rounded=0;" edge="1" parent="5sZzLFKiaspfi8mrWbHo-798">
          <mxGeometry width="50" height="50" relative="1" as="geometry">
            <mxPoint x="90" y="285" as="sourcePoint" />
            <mxPoint y="285" as="targetPoint" />
          </mxGeometry>
        </mxCell>
        <mxCell id="5sZzLFKiaspfi8mrWbHo-815" value="" style="endArrow=none;html=1;rounded=0;" edge="1" parent="5sZzLFKiaspfi8mrWbHo-798">
          <mxGeometry width="50" height="50" relative="1" as="geometry">
            <mxPoint x="90" y="245" as="sourcePoint" />
            <mxPoint y="245" as="targetPoint" />
          </mxGeometry>
        </mxCell>
        <mxCell id="5sZzLFKiaspfi8mrWbHo-816" value="Reviews" style="text;html=1;align=center;verticalAlign=middle;resizable=0;points=[];autosize=1;strokeColor=none;fillColor=none;" vertex="1" parent="5sZzLFKiaspfi8mrWbHo-798">
          <mxGeometry x="10" y="255" width="70" height="30" as="geometry" />
        </mxCell>
        <mxCell id="5sZzLFKiaspfi8mrWbHo-817" value="&lt;h2&gt;&lt;font style=&quot;font-size: 18px;&quot;&gt;Add Service&lt;/font&gt;&lt;/h2&gt;" style="text;html=1;align=center;verticalAlign=middle;resizable=0;points=[];autosize=1;strokeColor=none;fillColor=none;" vertex="1" parent="5sZzLFKiaspfi8mrWbHo-798">
          <mxGeometry x="100" width="130" height="60" as="geometry" />
        </mxCell>
        <mxCell id="5sZzLFKiaspfi8mrWbHo-818" value="Logo" style="ellipse;whiteSpace=wrap;html=1;" vertex="1" parent="5sZzLFKiaspfi8mrWbHo-798">
          <mxGeometry x="480" y="15" width="50" height="45" as="geometry" />
        </mxCell>
        <mxCell id="5sZzLFKiaspfi8mrWbHo-819" value="" style="group" vertex="1" connectable="0" parent="5sZzLFKiaspfi8mrWbHo-798">
          <mxGeometry x="110" y="62.5" width="390" height="175" as="geometry" />
        </mxCell>
        <mxCell id="5sZzLFKiaspfi8mrWbHo-820" value="" style="rounded=1;whiteSpace=wrap;html=1;" vertex="1" parent="5sZzLFKiaspfi8mrWbHo-819">
          <mxGeometry width="390" height="174.99999999999997" as="geometry" />
        </mxCell>
        <mxCell id="5sZzLFKiaspfi8mrWbHo-821" value="Add Image" style="rounded=1;whiteSpace=wrap;html=1;" vertex="1" parent="5sZzLFKiaspfi8mrWbHo-819">
          <mxGeometry width="140" height="175" as="geometry" />
        </mxCell>
        <mxCell id="5sZzLFKiaspfi8mrWbHo-822" value="Name" style="rounded=0;whiteSpace=wrap;html=1;" vertex="1" parent="5sZzLFKiaspfi8mrWbHo-819">
          <mxGeometry x="150" y="12.5" width="110" height="27.5" as="geometry" />
        </mxCell>
        <mxCell id="5sZzLFKiaspfi8mrWbHo-823" value="Description" style="rounded=0;whiteSpace=wrap;html=1;" vertex="1" parent="5sZzLFKiaspfi8mrWbHo-819">
          <mxGeometry x="150" y="70" width="220" height="90" as="geometry" />
        </mxCell>
        <mxCell id="5sZzLFKiaspfi8mrWbHo-824" value="Price" style="rounded=0;whiteSpace=wrap;html=1;" vertex="1" parent="5sZzLFKiaspfi8mrWbHo-819">
          <mxGeometry x="270" y="12.5" width="100" height="27.5" as="geometry" />
        </mxCell>
        <mxCell id="5sZzLFKiaspfi8mrWbHo-831" value="One way" style="text;html=1;align=center;verticalAlign=middle;resizable=0;points=[];autosize=1;strokeColor=none;fillColor=none;" vertex="1" parent="5sZzLFKiaspfi8mrWbHo-819">
          <mxGeometry x="190" y="40" width="70" height="30" as="geometry" />
        </mxCell>
        <mxCell id="5sZzLFKiaspfi8mrWbHo-833" value="" style="ellipse;whiteSpace=wrap;html=1;aspect=fixed;" vertex="1" parent="5sZzLFKiaspfi8mrWbHo-819">
          <mxGeometry x="191.87" y="51.88" width="6.25" height="6.25" as="geometry" />
        </mxCell>
        <mxCell id="5sZzLFKiaspfi8mrWbHo-835" value="Two way" style="text;html=1;align=center;verticalAlign=middle;resizable=0;points=[];autosize=1;strokeColor=none;fillColor=none;" vertex="1" parent="5sZzLFKiaspfi8mrWbHo-819">
          <mxGeometry x="270" y="40" width="70" height="30" as="geometry" />
        </mxCell>
        <mxCell id="5sZzLFKiaspfi8mrWbHo-836" value="" style="ellipse;whiteSpace=wrap;html=1;aspect=fixed;" vertex="1" parent="5sZzLFKiaspfi8mrWbHo-819">
          <mxGeometry x="271.8699999999999" y="51.88000000000011" width="6.25" height="6.25" as="geometry" />
        </mxCell>
        <mxCell id="5sZzLFKiaspfi8mrWbHo-825" value="Save Changes" style="rounded=1;whiteSpace=wrap;html=1;fillColor=#dae8fc;strokeColor=#6c8ebf;" vertex="1" parent="5sZzLFKiaspfi8mrWbHo-798">
          <mxGeometry x="430" y="257.5" width="90" height="25" as="geometry" />
        </mxCell>
        <mxCell id="5sZzLFKiaspfi8mrWbHo-837" value="" style="group" vertex="1" connectable="0" parent="1">
          <mxGeometry x="-683" y="-340" width="540" height="305" as="geometry" />
        </mxCell>
        <mxCell id="5sZzLFKiaspfi8mrWbHo-838" value="" style="rounded=0;whiteSpace=wrap;html=1;" vertex="1" parent="5sZzLFKiaspfi8mrWbHo-837">
          <mxGeometry y="5" width="540" height="300" as="geometry" />
        </mxCell>
        <mxCell id="5sZzLFKiaspfi8mrWbHo-839" value="" style="rounded=0;whiteSpace=wrap;html=1;" vertex="1" parent="5sZzLFKiaspfi8mrWbHo-837">
          <mxGeometry y="5" width="90" height="300" as="geometry" />
        </mxCell>
        <mxCell id="5sZzLFKiaspfi8mrWbHo-840" value="" style="endArrow=none;html=1;rounded=0;" edge="1" parent="5sZzLFKiaspfi8mrWbHo-837">
          <mxGeometry width="50" height="50" relative="1" as="geometry">
            <mxPoint x="90" y="45" as="sourcePoint" />
            <mxPoint y="45" as="targetPoint" />
          </mxGeometry>
        </mxCell>
        <mxCell id="5sZzLFKiaspfi8mrWbHo-841" value="" style="endArrow=none;html=1;rounded=0;" edge="1" parent="5sZzLFKiaspfi8mrWbHo-837">
          <mxGeometry width="50" height="50" relative="1" as="geometry">
            <mxPoint x="90" y="85" as="sourcePoint" />
            <mxPoint y="85" as="targetPoint" />
          </mxGeometry>
        </mxCell>
        <mxCell id="5sZzLFKiaspfi8mrWbHo-842" value="" style="endArrow=none;html=1;rounded=0;" edge="1" parent="5sZzLFKiaspfi8mrWbHo-837">
          <mxGeometry width="50" height="50" relative="1" as="geometry">
            <mxPoint x="90" y="205" as="sourcePoint" />
            <mxPoint y="205" as="targetPoint" />
          </mxGeometry>
        </mxCell>
        <mxCell id="5sZzLFKiaspfi8mrWbHo-843" value="" style="endArrow=none;html=1;rounded=0;" edge="1" parent="5sZzLFKiaspfi8mrWbHo-837">
          <mxGeometry width="50" height="50" relative="1" as="geometry">
            <mxPoint x="90" y="165" as="sourcePoint" />
            <mxPoint y="165" as="targetPoint" />
          </mxGeometry>
        </mxCell>
        <mxCell id="5sZzLFKiaspfi8mrWbHo-844" value="" style="endArrow=none;html=1;rounded=0;" edge="1" parent="5sZzLFKiaspfi8mrWbHo-837">
          <mxGeometry width="50" height="50" relative="1" as="geometry">
            <mxPoint x="90" y="125" as="sourcePoint" />
            <mxPoint y="125" as="targetPoint" />
          </mxGeometry>
        </mxCell>
        <mxCell id="5sZzLFKiaspfi8mrWbHo-845" value="Home" style="text;html=1;align=center;verticalAlign=middle;resizable=0;points=[];autosize=1;strokeColor=none;fillColor=none;" vertex="1" parent="5sZzLFKiaspfi8mrWbHo-837">
          <mxGeometry x="15" y="15" width="60" height="30" as="geometry" />
        </mxCell>
        <mxCell id="5sZzLFKiaspfi8mrWbHo-846" value="Orders" style="text;html=1;align=center;verticalAlign=middle;resizable=0;points=[];autosize=1;strokeColor=none;fillColor=none;" vertex="1" parent="5sZzLFKiaspfi8mrWbHo-837">
          <mxGeometry x="15" y="55" width="60" height="30" as="geometry" />
        </mxCell>
        <mxCell id="5sZzLFKiaspfi8mrWbHo-847" value="Products" style="text;html=1;align=center;verticalAlign=middle;resizable=0;points=[];autosize=1;strokeColor=none;fillColor=none;" vertex="1" parent="5sZzLFKiaspfi8mrWbHo-837">
          <mxGeometry x="10" y="95" width="70" height="30" as="geometry" />
        </mxCell>
        <mxCell id="5sZzLFKiaspfi8mrWbHo-848" value="Services" style="text;html=1;align=center;verticalAlign=middle;resizable=0;points=[];autosize=1;strokeColor=none;fillColor=none;" vertex="1" parent="5sZzLFKiaspfi8mrWbHo-837">
          <mxGeometry x="10" y="135" width="70" height="30" as="geometry" />
        </mxCell>
        <mxCell id="5sZzLFKiaspfi8mrWbHo-849" value="Payments" style="text;html=1;align=center;verticalAlign=middle;resizable=0;points=[];autosize=1;strokeColor=#d79b00;fillColor=#ffe6cc;" vertex="1" parent="5sZzLFKiaspfi8mrWbHo-837">
          <mxGeometry x="5" y="175" width="80" height="30" as="geometry" />
        </mxCell>
        <mxCell id="5sZzLFKiaspfi8mrWbHo-850" value="" style="endArrow=none;html=1;rounded=0;" edge="1" parent="5sZzLFKiaspfi8mrWbHo-837">
          <mxGeometry width="50" height="50" relative="1" as="geometry">
            <mxPoint x="90" y="245" as="sourcePoint" />
            <mxPoint y="245" as="targetPoint" />
          </mxGeometry>
        </mxCell>
        <mxCell id="5sZzLFKiaspfi8mrWbHo-851" value="" style="endArrow=none;html=1;rounded=0;" edge="1" parent="5sZzLFKiaspfi8mrWbHo-837">
          <mxGeometry width="50" height="50" relative="1" as="geometry">
            <mxPoint x="90" y="205" as="sourcePoint" />
            <mxPoint y="205" as="targetPoint" />
          </mxGeometry>
        </mxCell>
        <mxCell id="5sZzLFKiaspfi8mrWbHo-852" value="Profile" style="text;html=1;align=center;verticalAlign=middle;resizable=0;points=[];autosize=1;strokeColor=none;fillColor=none;" vertex="1" parent="5sZzLFKiaspfi8mrWbHo-837">
          <mxGeometry x="15" y="215" width="60" height="30" as="geometry" />
        </mxCell>
        <mxCell id="5sZzLFKiaspfi8mrWbHo-853" value="" style="endArrow=none;html=1;rounded=0;" edge="1" parent="5sZzLFKiaspfi8mrWbHo-837">
          <mxGeometry width="50" height="50" relative="1" as="geometry">
            <mxPoint x="90" y="285" as="sourcePoint" />
            <mxPoint y="285" as="targetPoint" />
          </mxGeometry>
        </mxCell>
        <mxCell id="5sZzLFKiaspfi8mrWbHo-854" value="" style="endArrow=none;html=1;rounded=0;" edge="1" parent="5sZzLFKiaspfi8mrWbHo-837">
          <mxGeometry width="50" height="50" relative="1" as="geometry">
            <mxPoint x="90" y="245" as="sourcePoint" />
            <mxPoint y="245" as="targetPoint" />
          </mxGeometry>
        </mxCell>
        <mxCell id="5sZzLFKiaspfi8mrWbHo-855" value="Reviews" style="text;html=1;align=center;verticalAlign=middle;resizable=0;points=[];autosize=1;strokeColor=none;fillColor=none;" vertex="1" parent="5sZzLFKiaspfi8mrWbHo-837">
          <mxGeometry x="10" y="255" width="70" height="30" as="geometry" />
        </mxCell>
        <mxCell id="5sZzLFKiaspfi8mrWbHo-856" value="&lt;h2&gt;&lt;font style=&quot;font-size: 18px;&quot;&gt;Payments&lt;/font&gt;&lt;/h2&gt;" style="text;html=1;align=center;verticalAlign=middle;resizable=0;points=[];autosize=1;strokeColor=none;fillColor=none;" vertex="1" parent="5sZzLFKiaspfi8mrWbHo-837">
          <mxGeometry x="105" width="110" height="60" as="geometry" />
        </mxCell>
        <mxCell id="5sZzLFKiaspfi8mrWbHo-857" value="Logo" style="ellipse;whiteSpace=wrap;html=1;" vertex="1" parent="5sZzLFKiaspfi8mrWbHo-837">
          <mxGeometry x="480" y="15" width="50" height="45" as="geometry" />
        </mxCell>
        <mxCell id="5sZzLFKiaspfi8mrWbHo-920" value="" style="group" vertex="1" connectable="0" parent="5sZzLFKiaspfi8mrWbHo-837">
          <mxGeometry x="150" y="70" width="295" height="165.75" as="geometry" />
        </mxCell>
        <mxCell id="5sZzLFKiaspfi8mrWbHo-862" value="" style="rounded=0;whiteSpace=wrap;html=1;" vertex="1" parent="5sZzLFKiaspfi8mrWbHo-920">
          <mxGeometry y="5" width="295" height="160" as="geometry" />
        </mxCell>
        <mxCell id="5sZzLFKiaspfi8mrWbHo-863" value="" style="endArrow=none;html=1;rounded=0;entryX=1.001;entryY=0.315;entryDx=0;entryDy=0;entryPerimeter=0;" edge="1" parent="5sZzLFKiaspfi8mrWbHo-920" target="5sZzLFKiaspfi8mrWbHo-862">
          <mxGeometry width="50" height="50" relative="1" as="geometry">
            <mxPoint y="55" as="sourcePoint" />
            <mxPoint x="50" y="5" as="targetPoint" />
          </mxGeometry>
        </mxCell>
        <mxCell id="5sZzLFKiaspfi8mrWbHo-864" value="" style="endArrow=none;html=1;rounded=0;entryX=0.998;entryY=0.161;entryDx=0;entryDy=0;entryPerimeter=0;" edge="1" parent="5sZzLFKiaspfi8mrWbHo-920" target="5sZzLFKiaspfi8mrWbHo-862">
          <mxGeometry width="50" height="50" relative="1" as="geometry">
            <mxPoint y="30" as="sourcePoint" />
            <mxPoint x="375" y="30" as="targetPoint" />
          </mxGeometry>
        </mxCell>
        <mxCell id="5sZzLFKiaspfi8mrWbHo-865" value="" style="endArrow=none;html=1;rounded=0;" edge="1" parent="5sZzLFKiaspfi8mrWbHo-920">
          <mxGeometry width="50" height="50" relative="1" as="geometry">
            <mxPoint y="134.72" as="sourcePoint" />
            <mxPoint x="295" y="135" as="targetPoint" />
          </mxGeometry>
        </mxCell>
        <mxCell id="5sZzLFKiaspfi8mrWbHo-866" value="" style="endArrow=none;html=1;rounded=0;" edge="1" parent="5sZzLFKiaspfi8mrWbHo-920">
          <mxGeometry width="50" height="50" relative="1" as="geometry">
            <mxPoint y="105.00000000000003" as="sourcePoint" />
            <mxPoint x="295" y="105" as="targetPoint" />
          </mxGeometry>
        </mxCell>
        <mxCell id="5sZzLFKiaspfi8mrWbHo-867" value="" style="endArrow=none;html=1;rounded=0;entryX=0.996;entryY=0.472;entryDx=0;entryDy=0;entryPerimeter=0;" edge="1" parent="5sZzLFKiaspfi8mrWbHo-920" target="5sZzLFKiaspfi8mrWbHo-862">
          <mxGeometry width="50" height="50" relative="1" as="geometry">
            <mxPoint y="80.00000000000003" as="sourcePoint" />
            <mxPoint x="375" y="80.00000000000003" as="targetPoint" />
          </mxGeometry>
        </mxCell>
        <mxCell id="5sZzLFKiaspfi8mrWbHo-868" value="" style="endArrow=none;html=1;rounded=0;entryX=0.125;entryY=0.001;entryDx=0;entryDy=0;entryPerimeter=0;exitX=0.121;exitY=1.011;exitDx=0;exitDy=0;exitPerimeter=0;" edge="1" parent="5sZzLFKiaspfi8mrWbHo-920" source="5sZzLFKiaspfi8mrWbHo-862">
          <mxGeometry width="50" height="50" relative="1" as="geometry">
            <mxPoint x="34.995000000000005" y="165.95999999999998" as="sourcePoint" />
            <mxPoint x="36.495000000000005" y="4.999999999999972" as="targetPoint" />
          </mxGeometry>
        </mxCell>
        <mxCell id="5sZzLFKiaspfi8mrWbHo-869" value="" style="endArrow=none;html=1;rounded=0;entryX=0.125;entryY=0.001;entryDx=0;entryDy=0;entryPerimeter=0;" edge="1" parent="5sZzLFKiaspfi8mrWbHo-920">
          <mxGeometry width="50" height="50" relative="1" as="geometry">
            <mxPoint x="107" y="165" as="sourcePoint" />
            <mxPoint x="107" y="4" as="targetPoint" />
          </mxGeometry>
        </mxCell>
        <mxCell id="5sZzLFKiaspfi8mrWbHo-870" value="" style="endArrow=none;html=1;rounded=0;entryX=0.125;entryY=0.001;entryDx=0;entryDy=0;entryPerimeter=0;" edge="1" parent="5sZzLFKiaspfi8mrWbHo-920">
          <mxGeometry width="50" height="50" relative="1" as="geometry">
            <mxPoint x="185" y="165.75" as="sourcePoint" />
            <mxPoint x="185" y="4.25" as="targetPoint" />
          </mxGeometry>
        </mxCell>
        <mxCell id="5sZzLFKiaspfi8mrWbHo-874" value="&lt;font style=&quot;font-size: 9px;&quot;&gt;Id&lt;/font&gt;" style="text;html=1;align=center;verticalAlign=middle;resizable=0;points=[];autosize=1;strokeColor=none;fillColor=none;" vertex="1" parent="5sZzLFKiaspfi8mrWbHo-920">
          <mxGeometry width="30" height="30" as="geometry" />
        </mxCell>
        <mxCell id="5sZzLFKiaspfi8mrWbHo-875" value="&lt;font style=&quot;font-size: 9px;&quot;&gt;Date&lt;/font&gt;" style="text;html=1;align=center;verticalAlign=middle;resizable=0;points=[];autosize=1;strokeColor=none;fillColor=none;" vertex="1" parent="5sZzLFKiaspfi8mrWbHo-920">
          <mxGeometry x="45" width="40" height="30" as="geometry" />
        </mxCell>
        <mxCell id="5sZzLFKiaspfi8mrWbHo-876" value="&lt;font style=&quot;font-size: 9px;&quot;&gt;Customer&lt;/font&gt;&lt;span style=&quot;color: rgba(0, 0, 0, 0); font-family: monospace; font-size: 0px; text-align: start;&quot;&gt;%3CmxGraphModel%3E%3Croot%3E%3CmxCell%20id%3D%220%22%2F%3E%3CmxCell%20id%3D%221%22%20parent%3D%220%22%2F%3E%3CmxCell%20id%3D%222%22%20value%3D%22%26lt%3Bfont%20style%3D%26quot%3Bfont-size%3A%209px%3B%26quot%3B%26gt%3BId%26lt%3B%2Ffont%26gt%3B%22%20style%3D%22text%3Bhtml%3D1%3Balign%3Dcenter%3BverticalAlign%3Dmiddle%3Bresizable%3D0%3Bpoints%3D%5B%5D%3Bautosize%3D1%3BstrokeColor%3Dnone%3BfillColor%3Dnone%3B%22%20vertex%3D%221%22%20parent%3D%221%22%3E%3CmxGeometry%20x%3D%22975%22%20y%3D%22235%22%20width%3D%2230%22%20height%3D%2230%22%20as%3D%22geometry%22%2F%3E%3C%2FmxCell%3E%3C%2Froot%3E%3C%2FmxGraphModel%3E&lt;/span&gt;" style="text;html=1;align=center;verticalAlign=middle;resizable=0;points=[];autosize=1;strokeColor=none;fillColor=none;" vertex="1" parent="5sZzLFKiaspfi8mrWbHo-920">
          <mxGeometry x="115" width="60" height="30" as="geometry" />
        </mxCell>
        <mxCell id="5sZzLFKiaspfi8mrWbHo-917" value="&lt;font style=&quot;font-size: 9px;&quot;&gt;Payment Received&lt;/font&gt;" style="text;html=1;align=center;verticalAlign=middle;resizable=0;points=[];autosize=1;strokeColor=none;fillColor=none;" vertex="1" parent="5sZzLFKiaspfi8mrWbHo-920">
          <mxGeometry x="195" width="100" height="30" as="geometry" />
        </mxCell>
        <mxCell id="5sZzLFKiaspfi8mrWbHo-922" value="" style="rounded=0;whiteSpace=wrap;html=1;" vertex="1" parent="5sZzLFKiaspfi8mrWbHo-837">
          <mxGeometry x="385" y="255" width="60" height="30" as="geometry" />
        </mxCell>
        <mxCell id="5sZzLFKiaspfi8mrWbHo-921" value="Total&amp;nbsp;" style="text;html=1;align=center;verticalAlign=middle;resizable=0;points=[];autosize=1;strokeColor=none;fillColor=none;" vertex="1" parent="5sZzLFKiaspfi8mrWbHo-837">
          <mxGeometry x="390" y="255" width="50" height="30" as="geometry" />
        </mxCell>
        <mxCell id="5sZzLFKiaspfi8mrWbHo-924" value="" style="group" vertex="1" connectable="0" parent="1">
          <mxGeometry x="-683" y="585" width="540" height="305" as="geometry" />
        </mxCell>
        <mxCell id="5sZzLFKiaspfi8mrWbHo-925" value="" style="rounded=0;whiteSpace=wrap;html=1;" vertex="1" parent="5sZzLFKiaspfi8mrWbHo-924">
          <mxGeometry y="5" width="540" height="300" as="geometry" />
        </mxCell>
        <mxCell id="5sZzLFKiaspfi8mrWbHo-926" value="" style="rounded=0;whiteSpace=wrap;html=1;" vertex="1" parent="5sZzLFKiaspfi8mrWbHo-924">
          <mxGeometry y="5" width="90" height="300" as="geometry" />
        </mxCell>
        <mxCell id="5sZzLFKiaspfi8mrWbHo-927" value="" style="endArrow=none;html=1;rounded=0;" edge="1" parent="5sZzLFKiaspfi8mrWbHo-924">
          <mxGeometry width="50" height="50" relative="1" as="geometry">
            <mxPoint x="90" y="45" as="sourcePoint" />
            <mxPoint y="45" as="targetPoint" />
          </mxGeometry>
        </mxCell>
        <mxCell id="5sZzLFKiaspfi8mrWbHo-928" value="" style="endArrow=none;html=1;rounded=0;" edge="1" parent="5sZzLFKiaspfi8mrWbHo-924">
          <mxGeometry width="50" height="50" relative="1" as="geometry">
            <mxPoint x="90" y="85" as="sourcePoint" />
            <mxPoint y="85" as="targetPoint" />
          </mxGeometry>
        </mxCell>
        <mxCell id="5sZzLFKiaspfi8mrWbHo-929" value="" style="endArrow=none;html=1;rounded=0;" edge="1" parent="5sZzLFKiaspfi8mrWbHo-924">
          <mxGeometry width="50" height="50" relative="1" as="geometry">
            <mxPoint x="90" y="205" as="sourcePoint" />
            <mxPoint y="205" as="targetPoint" />
          </mxGeometry>
        </mxCell>
        <mxCell id="5sZzLFKiaspfi8mrWbHo-930" value="" style="endArrow=none;html=1;rounded=0;" edge="1" parent="5sZzLFKiaspfi8mrWbHo-924">
          <mxGeometry width="50" height="50" relative="1" as="geometry">
            <mxPoint x="90" y="165" as="sourcePoint" />
            <mxPoint y="165" as="targetPoint" />
          </mxGeometry>
        </mxCell>
        <mxCell id="5sZzLFKiaspfi8mrWbHo-931" value="" style="endArrow=none;html=1;rounded=0;" edge="1" parent="5sZzLFKiaspfi8mrWbHo-924">
          <mxGeometry width="50" height="50" relative="1" as="geometry">
            <mxPoint x="90" y="125" as="sourcePoint" />
            <mxPoint y="125" as="targetPoint" />
          </mxGeometry>
        </mxCell>
        <mxCell id="5sZzLFKiaspfi8mrWbHo-932" value="Home" style="text;html=1;align=center;verticalAlign=middle;resizable=0;points=[];autosize=1;strokeColor=none;fillColor=none;" vertex="1" parent="5sZzLFKiaspfi8mrWbHo-924">
          <mxGeometry x="15" y="15" width="60" height="30" as="geometry" />
        </mxCell>
        <mxCell id="5sZzLFKiaspfi8mrWbHo-933" value="Orders" style="text;html=1;align=center;verticalAlign=middle;resizable=0;points=[];autosize=1;strokeColor=none;fillColor=none;" vertex="1" parent="5sZzLFKiaspfi8mrWbHo-924">
          <mxGeometry x="15" y="55" width="60" height="30" as="geometry" />
        </mxCell>
        <mxCell id="5sZzLFKiaspfi8mrWbHo-934" value="Products" style="text;html=1;align=center;verticalAlign=middle;resizable=0;points=[];autosize=1;strokeColor=none;fillColor=none;" vertex="1" parent="5sZzLFKiaspfi8mrWbHo-924">
          <mxGeometry x="10" y="95" width="70" height="30" as="geometry" />
        </mxCell>
        <mxCell id="5sZzLFKiaspfi8mrWbHo-935" value="Services" style="text;html=1;align=center;verticalAlign=middle;resizable=0;points=[];autosize=1;strokeColor=none;fillColor=none;" vertex="1" parent="5sZzLFKiaspfi8mrWbHo-924">
          <mxGeometry x="10" y="135" width="70" height="30" as="geometry" />
        </mxCell>
        <mxCell id="5sZzLFKiaspfi8mrWbHo-936" value="Payments" style="text;html=1;align=center;verticalAlign=middle;resizable=0;points=[];autosize=1;strokeColor=none;fillColor=none;" vertex="1" parent="5sZzLFKiaspfi8mrWbHo-924">
          <mxGeometry x="5" y="175" width="80" height="30" as="geometry" />
        </mxCell>
        <mxCell id="5sZzLFKiaspfi8mrWbHo-937" value="" style="endArrow=none;html=1;rounded=0;" edge="1" parent="5sZzLFKiaspfi8mrWbHo-924">
          <mxGeometry width="50" height="50" relative="1" as="geometry">
            <mxPoint x="90" y="245" as="sourcePoint" />
            <mxPoint y="245" as="targetPoint" />
          </mxGeometry>
        </mxCell>
        <mxCell id="5sZzLFKiaspfi8mrWbHo-938" value="" style="endArrow=none;html=1;rounded=0;" edge="1" parent="5sZzLFKiaspfi8mrWbHo-924">
          <mxGeometry width="50" height="50" relative="1" as="geometry">
            <mxPoint x="90" y="205" as="sourcePoint" />
            <mxPoint y="205" as="targetPoint" />
          </mxGeometry>
        </mxCell>
        <mxCell id="5sZzLFKiaspfi8mrWbHo-939" value="Profile" style="text;html=1;align=center;verticalAlign=middle;resizable=0;points=[];autosize=1;strokeColor=none;fillColor=none;" vertex="1" parent="5sZzLFKiaspfi8mrWbHo-924">
          <mxGeometry x="15" y="215" width="60" height="30" as="geometry" />
        </mxCell>
        <mxCell id="5sZzLFKiaspfi8mrWbHo-940" value="" style="endArrow=none;html=1;rounded=0;" edge="1" parent="5sZzLFKiaspfi8mrWbHo-924">
          <mxGeometry width="50" height="50" relative="1" as="geometry">
            <mxPoint x="90" y="285" as="sourcePoint" />
            <mxPoint y="285" as="targetPoint" />
          </mxGeometry>
        </mxCell>
        <mxCell id="5sZzLFKiaspfi8mrWbHo-941" value="" style="endArrow=none;html=1;rounded=0;" edge="1" parent="5sZzLFKiaspfi8mrWbHo-924">
          <mxGeometry width="50" height="50" relative="1" as="geometry">
            <mxPoint x="90" y="245" as="sourcePoint" />
            <mxPoint y="245" as="targetPoint" />
          </mxGeometry>
        </mxCell>
        <mxCell id="5sZzLFKiaspfi8mrWbHo-942" value="Reviews" style="text;html=1;align=center;verticalAlign=middle;resizable=0;points=[];autosize=1;strokeColor=#d79b00;fillColor=#ffe6cc;" vertex="1" parent="5sZzLFKiaspfi8mrWbHo-924">
          <mxGeometry x="10" y="255" width="70" height="30" as="geometry" />
        </mxCell>
        <mxCell id="5sZzLFKiaspfi8mrWbHo-943" value="&lt;h2&gt;&lt;font style=&quot;font-size: 18px;&quot;&gt;Reviews/Feedbacks&lt;/font&gt;&lt;/h2&gt;" style="text;html=1;align=center;verticalAlign=middle;resizable=0;points=[];autosize=1;strokeColor=none;fillColor=none;" vertex="1" parent="5sZzLFKiaspfi8mrWbHo-924">
          <mxGeometry x="103" width="190" height="60" as="geometry" />
        </mxCell>
        <mxCell id="5sZzLFKiaspfi8mrWbHo-944" value="Logo" style="ellipse;whiteSpace=wrap;html=1;" vertex="1" parent="5sZzLFKiaspfi8mrWbHo-924">
          <mxGeometry x="480" y="15" width="50" height="45" as="geometry" />
        </mxCell>
        <mxCell id="5sZzLFKiaspfi8mrWbHo-945" value="" style="group" vertex="1" connectable="0" parent="5sZzLFKiaspfi8mrWbHo-924">
          <mxGeometry x="110" y="65" width="395" height="85" as="geometry" />
        </mxCell>
        <mxCell id="5sZzLFKiaspfi8mrWbHo-961" value="" style="group" vertex="1" connectable="0" parent="5sZzLFKiaspfi8mrWbHo-945">
          <mxGeometry width="390" height="85" as="geometry" />
        </mxCell>
        <mxCell id="5sZzLFKiaspfi8mrWbHo-946" value="" style="rounded=1;whiteSpace=wrap;html=1;" vertex="1" parent="5sZzLFKiaspfi8mrWbHo-961">
          <mxGeometry width="390" height="85" as="geometry" />
        </mxCell>
        <mxCell id="5sZzLFKiaspfi8mrWbHo-948" value="Name" style="text;html=1;align=center;verticalAlign=middle;resizable=0;points=[];autosize=1;strokeColor=none;fillColor=none;" vertex="1" parent="5sZzLFKiaspfi8mrWbHo-961">
          <mxGeometry width="60" height="30" as="geometry" />
        </mxCell>
        <mxCell id="5sZzLFKiaspfi8mrWbHo-949" value="Review....." style="text;html=1;align=center;verticalAlign=middle;resizable=0;points=[];autosize=1;strokeColor=none;fillColor=none;" vertex="1" parent="5sZzLFKiaspfi8mrWbHo-961">
          <mxGeometry y="30" width="80" height="30" as="geometry" />
        </mxCell>
        <mxCell id="5sZzLFKiaspfi8mrWbHo-950" value="Offering" style="text;html=1;align=center;verticalAlign=middle;resizable=0;points=[];autosize=1;strokeColor=none;fillColor=none;" vertex="1" parent="5sZzLFKiaspfi8mrWbHo-961">
          <mxGeometry x="85" width="70" height="30" as="geometry" />
        </mxCell>
        <mxCell id="5sZzLFKiaspfi8mrWbHo-959" value="Date" style="text;html=1;align=center;verticalAlign=middle;resizable=0;points=[];autosize=1;strokeColor=none;fillColor=none;" vertex="1" parent="5sZzLFKiaspfi8mrWbHo-961">
          <mxGeometry x="165" width="50" height="30" as="geometry" />
        </mxCell>
        <mxCell id="5sZzLFKiaspfi8mrWbHo-960" value="Reply" style="rounded=1;whiteSpace=wrap;html=1;" vertex="1" parent="5sZzLFKiaspfi8mrWbHo-961">
          <mxGeometry x="320" y="50" width="53" height="25" as="geometry" />
        </mxCell>
        <mxCell id="5sZzLFKiaspfi8mrWbHo-962" value="" style="group" vertex="1" connectable="0" parent="5sZzLFKiaspfi8mrWbHo-924">
          <mxGeometry x="110" y="160" width="390" height="85" as="geometry" />
        </mxCell>
        <mxCell id="5sZzLFKiaspfi8mrWbHo-963" value="" style="rounded=1;whiteSpace=wrap;html=1;" vertex="1" parent="5sZzLFKiaspfi8mrWbHo-962">
          <mxGeometry width="390" height="85" as="geometry" />
        </mxCell>
        <mxCell id="5sZzLFKiaspfi8mrWbHo-964" value="Name" style="text;html=1;align=center;verticalAlign=middle;resizable=0;points=[];autosize=1;strokeColor=none;fillColor=none;" vertex="1" parent="5sZzLFKiaspfi8mrWbHo-962">
          <mxGeometry width="60" height="30" as="geometry" />
        </mxCell>
        <mxCell id="5sZzLFKiaspfi8mrWbHo-965" value="Review....." style="text;html=1;align=center;verticalAlign=middle;resizable=0;points=[];autosize=1;strokeColor=none;fillColor=none;" vertex="1" parent="5sZzLFKiaspfi8mrWbHo-962">
          <mxGeometry y="30" width="80" height="30" as="geometry" />
        </mxCell>
        <mxCell id="5sZzLFKiaspfi8mrWbHo-966" value="Offering" style="text;html=1;align=center;verticalAlign=middle;resizable=0;points=[];autosize=1;strokeColor=none;fillColor=none;" vertex="1" parent="5sZzLFKiaspfi8mrWbHo-962">
          <mxGeometry x="85" width="70" height="30" as="geometry" />
        </mxCell>
        <mxCell id="5sZzLFKiaspfi8mrWbHo-967" value="Date" style="text;html=1;align=center;verticalAlign=middle;resizable=0;points=[];autosize=1;strokeColor=none;fillColor=none;" vertex="1" parent="5sZzLFKiaspfi8mrWbHo-962">
          <mxGeometry x="165" width="50" height="30" as="geometry" />
        </mxCell>
        <mxCell id="5sZzLFKiaspfi8mrWbHo-968" value="Reply" style="rounded=1;whiteSpace=wrap;html=1;" vertex="1" parent="5sZzLFKiaspfi8mrWbHo-962">
          <mxGeometry x="320" y="50" width="53" height="25" as="geometry" />
        </mxCell>
        <mxCell id="5sZzLFKiaspfi8mrWbHo-969" value="" style="group" vertex="1" connectable="0" parent="1">
          <mxGeometry x="-683" y="150" width="540" height="305" as="geometry" />
        </mxCell>
        <mxCell id="5sZzLFKiaspfi8mrWbHo-970" value="" style="rounded=0;whiteSpace=wrap;html=1;" vertex="1" parent="5sZzLFKiaspfi8mrWbHo-969">
          <mxGeometry y="5" width="540" height="300" as="geometry" />
        </mxCell>
        <mxCell id="5sZzLFKiaspfi8mrWbHo-971" value="" style="rounded=0;whiteSpace=wrap;html=1;" vertex="1" parent="5sZzLFKiaspfi8mrWbHo-969">
          <mxGeometry y="5" width="90" height="300" as="geometry" />
        </mxCell>
        <mxCell id="5sZzLFKiaspfi8mrWbHo-972" value="" style="endArrow=none;html=1;rounded=0;" edge="1" parent="5sZzLFKiaspfi8mrWbHo-969">
          <mxGeometry width="50" height="50" relative="1" as="geometry">
            <mxPoint x="90" y="45" as="sourcePoint" />
            <mxPoint y="45" as="targetPoint" />
          </mxGeometry>
        </mxCell>
        <mxCell id="5sZzLFKiaspfi8mrWbHo-973" value="" style="endArrow=none;html=1;rounded=0;" edge="1" parent="5sZzLFKiaspfi8mrWbHo-969">
          <mxGeometry width="50" height="50" relative="1" as="geometry">
            <mxPoint x="90" y="85" as="sourcePoint" />
            <mxPoint y="85" as="targetPoint" />
          </mxGeometry>
        </mxCell>
        <mxCell id="5sZzLFKiaspfi8mrWbHo-974" value="" style="endArrow=none;html=1;rounded=0;" edge="1" parent="5sZzLFKiaspfi8mrWbHo-969">
          <mxGeometry width="50" height="50" relative="1" as="geometry">
            <mxPoint x="90" y="205" as="sourcePoint" />
            <mxPoint y="205" as="targetPoint" />
          </mxGeometry>
        </mxCell>
        <mxCell id="5sZzLFKiaspfi8mrWbHo-975" value="" style="endArrow=none;html=1;rounded=0;" edge="1" parent="5sZzLFKiaspfi8mrWbHo-969">
          <mxGeometry width="50" height="50" relative="1" as="geometry">
            <mxPoint x="90" y="165" as="sourcePoint" />
            <mxPoint y="165" as="targetPoint" />
          </mxGeometry>
        </mxCell>
        <mxCell id="5sZzLFKiaspfi8mrWbHo-976" value="" style="endArrow=none;html=1;rounded=0;" edge="1" parent="5sZzLFKiaspfi8mrWbHo-969">
          <mxGeometry width="50" height="50" relative="1" as="geometry">
            <mxPoint x="90" y="125" as="sourcePoint" />
            <mxPoint y="125" as="targetPoint" />
          </mxGeometry>
        </mxCell>
        <mxCell id="5sZzLFKiaspfi8mrWbHo-977" value="Home" style="text;html=1;align=center;verticalAlign=middle;resizable=0;points=[];autosize=1;strokeColor=none;fillColor=none;" vertex="1" parent="5sZzLFKiaspfi8mrWbHo-969">
          <mxGeometry x="15" y="15" width="60" height="30" as="geometry" />
        </mxCell>
        <mxCell id="5sZzLFKiaspfi8mrWbHo-978" value="Orders" style="text;html=1;align=center;verticalAlign=middle;resizable=0;points=[];autosize=1;strokeColor=none;fillColor=none;" vertex="1" parent="5sZzLFKiaspfi8mrWbHo-969">
          <mxGeometry x="15" y="55" width="60" height="30" as="geometry" />
        </mxCell>
        <mxCell id="5sZzLFKiaspfi8mrWbHo-979" value="Products" style="text;html=1;align=center;verticalAlign=middle;resizable=0;points=[];autosize=1;strokeColor=none;fillColor=none;" vertex="1" parent="5sZzLFKiaspfi8mrWbHo-969">
          <mxGeometry x="10" y="95" width="70" height="30" as="geometry" />
        </mxCell>
        <mxCell id="5sZzLFKiaspfi8mrWbHo-980" value="Services" style="text;html=1;align=center;verticalAlign=middle;resizable=0;points=[];autosize=1;strokeColor=none;fillColor=none;" vertex="1" parent="5sZzLFKiaspfi8mrWbHo-969">
          <mxGeometry x="10" y="135" width="70" height="30" as="geometry" />
        </mxCell>
        <mxCell id="5sZzLFKiaspfi8mrWbHo-981" value="Payments" style="text;html=1;align=center;verticalAlign=middle;resizable=0;points=[];autosize=1;strokeColor=none;fillColor=none;" vertex="1" parent="5sZzLFKiaspfi8mrWbHo-969">
          <mxGeometry x="5" y="175" width="80" height="30" as="geometry" />
        </mxCell>
        <mxCell id="5sZzLFKiaspfi8mrWbHo-982" value="" style="endArrow=none;html=1;rounded=0;" edge="1" parent="5sZzLFKiaspfi8mrWbHo-969">
          <mxGeometry width="50" height="50" relative="1" as="geometry">
            <mxPoint x="90" y="245" as="sourcePoint" />
            <mxPoint y="245" as="targetPoint" />
          </mxGeometry>
        </mxCell>
        <mxCell id="5sZzLFKiaspfi8mrWbHo-983" value="" style="endArrow=none;html=1;rounded=0;" edge="1" parent="5sZzLFKiaspfi8mrWbHo-969">
          <mxGeometry width="50" height="50" relative="1" as="geometry">
            <mxPoint x="90" y="205" as="sourcePoint" />
            <mxPoint y="205" as="targetPoint" />
          </mxGeometry>
        </mxCell>
        <mxCell id="5sZzLFKiaspfi8mrWbHo-984" value="Profile" style="text;html=1;align=center;verticalAlign=middle;resizable=0;points=[];autosize=1;strokeColor=#d79b00;fillColor=#ffe6cc;" vertex="1" parent="5sZzLFKiaspfi8mrWbHo-969">
          <mxGeometry x="15" y="215" width="60" height="30" as="geometry" />
        </mxCell>
        <mxCell id="5sZzLFKiaspfi8mrWbHo-985" value="" style="endArrow=none;html=1;rounded=0;" edge="1" parent="5sZzLFKiaspfi8mrWbHo-969">
          <mxGeometry width="50" height="50" relative="1" as="geometry">
            <mxPoint x="90" y="285" as="sourcePoint" />
            <mxPoint y="285" as="targetPoint" />
          </mxGeometry>
        </mxCell>
        <mxCell id="5sZzLFKiaspfi8mrWbHo-986" value="" style="endArrow=none;html=1;rounded=0;" edge="1" parent="5sZzLFKiaspfi8mrWbHo-969">
          <mxGeometry width="50" height="50" relative="1" as="geometry">
            <mxPoint x="90" y="245" as="sourcePoint" />
            <mxPoint y="245" as="targetPoint" />
          </mxGeometry>
        </mxCell>
        <mxCell id="5sZzLFKiaspfi8mrWbHo-987" value="Reviews" style="text;html=1;align=center;verticalAlign=middle;resizable=0;points=[];autosize=1;strokeColor=none;fillColor=none;" vertex="1" parent="5sZzLFKiaspfi8mrWbHo-969">
          <mxGeometry x="10" y="255" width="70" height="30" as="geometry" />
        </mxCell>
        <mxCell id="5sZzLFKiaspfi8mrWbHo-988" value="&lt;h2&gt;&lt;font style=&quot;font-size: 18px;&quot;&gt;Profile&lt;/font&gt;&lt;/h2&gt;" style="text;html=1;align=center;verticalAlign=middle;resizable=0;points=[];autosize=1;strokeColor=none;fillColor=none;" vertex="1" parent="5sZzLFKiaspfi8mrWbHo-969">
          <mxGeometry x="110" width="80" height="60" as="geometry" />
        </mxCell>
        <mxCell id="5sZzLFKiaspfi8mrWbHo-989" value="Logo" style="ellipse;whiteSpace=wrap;html=1;" vertex="1" parent="5sZzLFKiaspfi8mrWbHo-969">
          <mxGeometry x="480" y="15" width="50" height="45" as="geometry" />
        </mxCell>
        <mxCell id="5sZzLFKiaspfi8mrWbHo-1005" value="Name of Business" style="rounded=1;whiteSpace=wrap;html=1;" vertex="1" parent="5sZzLFKiaspfi8mrWbHo-969">
          <mxGeometry x="118" y="65" width="112" height="25" as="geometry" />
        </mxCell>
        <mxCell id="5sZzLFKiaspfi8mrWbHo-1006" value="Email id" style="rounded=1;whiteSpace=wrap;html=1;" vertex="1" parent="5sZzLFKiaspfi8mrWbHo-969">
          <mxGeometry x="258" y="65" width="112" height="25" as="geometry" />
        </mxCell>
        <mxCell id="5sZzLFKiaspfi8mrWbHo-1007" value="Mobile" style="rounded=1;whiteSpace=wrap;html=1;" vertex="1" parent="5sZzLFKiaspfi8mrWbHo-969">
          <mxGeometry x="118" y="110" width="112" height="25" as="geometry" />
        </mxCell>
        <mxCell id="5sZzLFKiaspfi8mrWbHo-1008" value="Owner" style="rounded=1;whiteSpace=wrap;html=1;" vertex="1" parent="5sZzLFKiaspfi8mrWbHo-969">
          <mxGeometry x="258" y="110" width="112" height="25" as="geometry" />
        </mxCell>
        <mxCell id="5sZzLFKiaspfi8mrWbHo-1010" value="Description" style="rounded=1;whiteSpace=wrap;html=1;" vertex="1" parent="5sZzLFKiaspfi8mrWbHo-969">
          <mxGeometry x="118" y="145" width="252" height="50" as="geometry" />
        </mxCell>
        <mxCell id="5sZzLFKiaspfi8mrWbHo-1011" value="Address" style="rounded=1;whiteSpace=wrap;html=1;" vertex="1" parent="5sZzLFKiaspfi8mrWbHo-969">
          <mxGeometry x="118" y="205" width="252" height="50" as="geometry" />
        </mxCell>
        <mxCell id="5sZzLFKiaspfi8mrWbHo-1009" value="Password" style="rounded=1;whiteSpace=wrap;html=1;" vertex="1" parent="5sZzLFKiaspfi8mrWbHo-969">
          <mxGeometry x="118" y="265" width="252" height="25" as="geometry" />
        </mxCell>
        <mxCell id="5sZzLFKiaspfi8mrWbHo-1014" value="" style="group" vertex="1" connectable="0" parent="1">
          <mxGeometry x="990" y="-330" width="540" height="305" as="geometry" />
        </mxCell>
        <mxCell id="5sZzLFKiaspfi8mrWbHo-1015" value="" style="rounded=0;whiteSpace=wrap;html=1;" vertex="1" parent="5sZzLFKiaspfi8mrWbHo-1014">
          <mxGeometry y="5" width="540" height="300" as="geometry" />
        </mxCell>
        <mxCell id="5sZzLFKiaspfi8mrWbHo-1033" value="&lt;h2&gt;&lt;font style=&quot;font-size: 18px;&quot;&gt;Register Business&lt;/font&gt;&lt;/h2&gt;" style="text;html=1;align=center;verticalAlign=middle;resizable=0;points=[];autosize=1;strokeColor=none;fillColor=none;" vertex="1" parent="5sZzLFKiaspfi8mrWbHo-1014">
          <mxGeometry x="150" width="180" height="60" as="geometry" />
        </mxCell>
        <mxCell id="5sZzLFKiaspfi8mrWbHo-1034" value="Logo" style="ellipse;whiteSpace=wrap;html=1;" vertex="1" parent="5sZzLFKiaspfi8mrWbHo-1014">
          <mxGeometry x="480" y="15" width="50" height="45" as="geometry" />
        </mxCell>
        <mxCell id="5sZzLFKiaspfi8mrWbHo-1035" value="Name of Business" style="rounded=1;whiteSpace=wrap;html=1;" vertex="1" parent="5sZzLFKiaspfi8mrWbHo-1014">
          <mxGeometry x="118" y="65" width="112" height="25" as="geometry" />
        </mxCell>
        <mxCell id="5sZzLFKiaspfi8mrWbHo-1036" value="Email id" style="rounded=1;whiteSpace=wrap;html=1;" vertex="1" parent="5sZzLFKiaspfi8mrWbHo-1014">
          <mxGeometry x="258" y="65" width="112" height="25" as="geometry" />
        </mxCell>
        <mxCell id="5sZzLFKiaspfi8mrWbHo-1037" value="Mobile" style="rounded=1;whiteSpace=wrap;html=1;" vertex="1" parent="5sZzLFKiaspfi8mrWbHo-1014">
          <mxGeometry x="118" y="95" width="112" height="25" as="geometry" />
        </mxCell>
        <mxCell id="5sZzLFKiaspfi8mrWbHo-1038" value="Owner" style="rounded=1;whiteSpace=wrap;html=1;" vertex="1" parent="5sZzLFKiaspfi8mrWbHo-1014">
          <mxGeometry x="258" y="95" width="112" height="25" as="geometry" />
        </mxCell>
        <mxCell id="5sZzLFKiaspfi8mrWbHo-1039" value="Description" style="rounded=1;whiteSpace=wrap;html=1;" vertex="1" parent="5sZzLFKiaspfi8mrWbHo-1014">
          <mxGeometry x="118" y="130" width="252" height="50" as="geometry" />
        </mxCell>
        <mxCell id="5sZzLFKiaspfi8mrWbHo-1040" value="Address" style="rounded=1;whiteSpace=wrap;html=1;" vertex="1" parent="5sZzLFKiaspfi8mrWbHo-1014">
          <mxGeometry x="118" y="185" width="252" height="50" as="geometry" />
        </mxCell>
        <mxCell id="5sZzLFKiaspfi8mrWbHo-1041" value="Password" style="rounded=1;whiteSpace=wrap;html=1;" vertex="1" parent="5sZzLFKiaspfi8mrWbHo-1014">
          <mxGeometry x="118" y="240" width="122" height="25" as="geometry" />
        </mxCell>
        <mxCell id="5sZzLFKiaspfi8mrWbHo-1054" value="Confirm Password" style="rounded=1;whiteSpace=wrap;html=1;" vertex="1" parent="5sZzLFKiaspfi8mrWbHo-1014">
          <mxGeometry x="248" y="240" width="122" height="25" as="geometry" />
        </mxCell>
        <mxCell id="5sZzLFKiaspfi8mrWbHo-1055" value="Register" style="rounded=1;whiteSpace=wrap;html=1;fillColor=#dae8fc;strokeColor=#6c8ebf;" vertex="1" parent="5sZzLFKiaspfi8mrWbHo-1014">
          <mxGeometry x="120" y="275" width="250" height="25" as="geometry" />
        </mxCell>
        <mxCell id="5sZzLFKiaspfi8mrWbHo-1056" value="" style="group" vertex="1" connectable="0" parent="1">
          <mxGeometry x="150" y="-330" width="540" height="305" as="geometry" />
        </mxCell>
        <mxCell id="5sZzLFKiaspfi8mrWbHo-1057" value="" style="rounded=0;whiteSpace=wrap;html=1;" vertex="1" parent="5sZzLFKiaspfi8mrWbHo-1056">
          <mxGeometry y="5" width="540" height="300" as="geometry" />
        </mxCell>
        <mxCell id="5sZzLFKiaspfi8mrWbHo-1058" value="&lt;h2&gt;&lt;font style=&quot;font-size: 18px;&quot;&gt;Login For Business&lt;/font&gt;&lt;/h2&gt;" style="text;html=1;align=center;verticalAlign=middle;resizable=0;points=[];autosize=1;strokeColor=none;fillColor=none;" vertex="1" parent="5sZzLFKiaspfi8mrWbHo-1056">
          <mxGeometry x="144" width="190" height="60" as="geometry" />
        </mxCell>
        <mxCell id="5sZzLFKiaspfi8mrWbHo-1059" value="Logo" style="ellipse;whiteSpace=wrap;html=1;" vertex="1" parent="5sZzLFKiaspfi8mrWbHo-1056">
          <mxGeometry x="480" y="15" width="50" height="45" as="geometry" />
        </mxCell>
        <mxCell id="5sZzLFKiaspfi8mrWbHo-1061" value="Email id" style="rounded=1;whiteSpace=wrap;html=1;" vertex="1" parent="5sZzLFKiaspfi8mrWbHo-1056">
          <mxGeometry x="178" y="90" width="122" height="25" as="geometry" />
        </mxCell>
        <mxCell id="5sZzLFKiaspfi8mrWbHo-1066" value="Password" style="rounded=1;whiteSpace=wrap;html=1;" vertex="1" parent="5sZzLFKiaspfi8mrWbHo-1056">
          <mxGeometry x="178" y="130" width="122" height="25" as="geometry" />
        </mxCell>
        <mxCell id="5sZzLFKiaspfi8mrWbHo-1068" value="Login" style="rounded=1;whiteSpace=wrap;html=1;fillColor=#dae8fc;strokeColor=#6c8ebf;" vertex="1" parent="5sZzLFKiaspfi8mrWbHo-1056">
          <mxGeometry x="179" y="170" width="120" height="25" as="geometry" />
        </mxCell>
        <mxCell id="5sZzLFKiaspfi8mrWbHo-1088" value="Register your business" style="text;html=1;align=center;verticalAlign=middle;resizable=0;points=[];autosize=1;" vertex="1" parent="5sZzLFKiaspfi8mrWbHo-1056">
          <mxGeometry x="164" y="200" width="150" height="30" as="geometry" />
        </mxCell>
        <mxCell id="5sZzLFKiaspfi8mrWbHo-1070" style="edgeStyle=orthogonalEdgeStyle;rounded=0;orthogonalLoop=1;jettySize=auto;html=1;entryX=0.521;entryY=-0.007;entryDx=0;entryDy=0;entryPerimeter=0;" edge="1" parent="1" source="5sZzLFKiaspfi8mrWbHo-1057" target="5sZzLFKiaspfi8mrWbHo-1">
          <mxGeometry relative="1" as="geometry" />
        </mxCell>
        <mxCell id="5sZzLFKiaspfi8mrWbHo-1072" style="edgeStyle=orthogonalEdgeStyle;rounded=0;orthogonalLoop=1;jettySize=auto;html=1;exitX=0.5;exitY=1;exitDx=0;exitDy=0;" edge="1" parent="1" source="5sZzLFKiaspfi8mrWbHo-34" target="5sZzLFKiaspfi8mrWbHo-462">
          <mxGeometry relative="1" as="geometry" />
        </mxCell>
        <mxCell id="5sZzLFKiaspfi8mrWbHo-1078" style="edgeStyle=orthogonalEdgeStyle;rounded=0;orthogonalLoop=1;jettySize=auto;html=1;" edge="1" parent="1" source="5sZzLFKiaspfi8mrWbHo-38" target="5sZzLFKiaspfi8mrWbHo-744">
          <mxGeometry relative="1" as="geometry">
            <Array as="points">
              <mxPoint x="579" y="460" />
              <mxPoint x="1130" y="460" />
            </Array>
          </mxGeometry>
        </mxCell>
        <mxCell id="5sZzLFKiaspfi8mrWbHo-1079" style="edgeStyle=orthogonalEdgeStyle;rounded=0;orthogonalLoop=1;jettySize=auto;html=1;entryX=0.863;entryY=0.017;entryDx=0;entryDy=0;entryPerimeter=0;" edge="1" parent="1" source="5sZzLFKiaspfi8mrWbHo-723" target="5sZzLFKiaspfi8mrWbHo-762">
          <mxGeometry relative="1" as="geometry" />
        </mxCell>
        <mxCell id="5sZzLFKiaspfi8mrWbHo-1080" style="edgeStyle=orthogonalEdgeStyle;rounded=0;orthogonalLoop=1;jettySize=auto;html=1;entryX=0.887;entryY=0.017;entryDx=0;entryDy=0;entryPerimeter=0;" edge="1" parent="1" source="5sZzLFKiaspfi8mrWbHo-758" target="5sZzLFKiaspfi8mrWbHo-799">
          <mxGeometry relative="1" as="geometry" />
        </mxCell>
        <mxCell id="5sZzLFKiaspfi8mrWbHo-1081" style="edgeStyle=orthogonalEdgeStyle;rounded=0;orthogonalLoop=1;jettySize=auto;html=1;entryX=0.998;entryY=0.64;entryDx=0;entryDy=0;entryPerimeter=0;" edge="1" parent="1" source="5sZzLFKiaspfi8mrWbHo-17" target="5sZzLFKiaspfi8mrWbHo-838">
          <mxGeometry relative="1" as="geometry">
            <Array as="points">
              <mxPoint x="70" y="330" />
              <mxPoint x="70" y="-143" />
            </Array>
          </mxGeometry>
        </mxCell>
        <mxCell id="5sZzLFKiaspfi8mrWbHo-1087" style="edgeStyle=orthogonalEdgeStyle;rounded=0;orthogonalLoop=1;jettySize=auto;html=1;exitX=0;exitY=0.5;exitDx=0;exitDy=0;entryX=1;entryY=0.25;entryDx=0;entryDy=0;" edge="1" parent="1" source="5sZzLFKiaspfi8mrWbHo-24" target="5sZzLFKiaspfi8mrWbHo-925">
          <mxGeometry relative="1" as="geometry" />
        </mxCell>
        <mxCell id="5sZzLFKiaspfi8mrWbHo-1089" style="edgeStyle=orthogonalEdgeStyle;rounded=0;orthogonalLoop=1;jettySize=auto;html=1;entryX=-0.007;entryY=0.699;entryDx=0;entryDy=0;entryPerimeter=0;" edge="1" parent="1" source="5sZzLFKiaspfi8mrWbHo-1088" target="5sZzLFKiaspfi8mrWbHo-1015">
          <mxGeometry relative="1" as="geometry" />
        </mxCell>
      </root>
    </mxGraphModel>
  </diagram>
</mxfile>
